<svg xmlns="http://www.w3.org/2000/svg" xmlns:xlink="http://www.w3.org/1999/xlink" width="500" zoomAndPan="magnify" viewBox="0 0 375 374.999991" height="500" preserveAspectRatio="xMidYMid meet" version="1.0"><defs><clipPath id="eb00af9563"><path d="M 79 83 L 138 83 L 138 134 L 79 134 Z M 79 83 " clip-rule="nonzero"/></clipPath><clipPath id="4fa87f6bc9"><path d="M 117.800781 83.421875 L 137.804688 109.464844 L 89.378906 146.65625 L 69.375 120.609375 Z M 117.800781 83.421875 " clip-rule="nonzero"/></clipPath><clipPath id="b423044b9c"><path d="M 79.457031 133.570312 L 137.804688 109.464844 L 117.800781 83.421875 Z M 79.457031 133.570312 " clip-rule="nonzero"/></clipPath><clipPath id="e33b052763"><path d="M 0.398438 0.28125 L 58.960938 0.28125 L 58.960938 50.679688 L 0.398438 50.679688 Z M 0.398438 0.28125 " clip-rule="nonzero"/></clipPath><clipPath id="4106f16b2a"><path d="M 38.800781 0.421875 L 58.804688 26.464844 L 10.378906 63.65625 L -9.625 37.609375 Z M 38.800781 0.421875 " clip-rule="nonzero"/></clipPath><clipPath id="47eeda5585"><path d="M 0.457031 50.570312 L 58.804688 26.464844 L 38.800781 0.421875 Z M 0.457031 50.570312 " clip-rule="nonzero"/></clipPath><clipPath id="b06b9f89ee"><rect x="0" width="59" y="0" height="51"/></clipPath><clipPath id="31f81abc46"><path d="M 79 242 L 138 242 L 138 292 L 79 292 Z M 79 242 " clip-rule="nonzero"/></clipPath><clipPath id="02d4a9e8cc"><path d="M 137.621094 265.453125 L 117.792969 291.628906 L 69.835938 255.304688 L 89.664062 229.128906 Z M 137.621094 265.453125 " clip-rule="nonzero"/></clipPath><clipPath id="2b6c055ad1"><path d="M 79.757812 242.222656 L 117.792969 291.628906 L 137.621094 265.453125 Z M 79.757812 242.222656 " clip-rule="nonzero"/></clipPath><clipPath id="4ea419f214"><path d="M 0.640625 0.160156 L 58.71875 0.160156 L 58.71875 49.839844 L 0.640625 49.839844 Z M 0.640625 0.160156 " clip-rule="nonzero"/></clipPath><clipPath id="061769356b"><path d="M 58.621094 23.453125 L 38.792969 49.628906 L -9.164062 13.304688 L 10.664062 -12.871094 Z M 58.621094 23.453125 " clip-rule="nonzero"/></clipPath><clipPath id="660cde3906"><path d="M 0.757812 0.222656 L 38.792969 49.628906 L 58.621094 23.453125 Z M 0.757812 0.222656 " clip-rule="nonzero"/></clipPath><clipPath id="65e82f3ca7"><rect x="0" width="59" y="0" height="50"/></clipPath><clipPath id="4066382696"><path d="M 79 96 L 199 96 L 199 226 L 79 226 Z M 79 96 " clip-rule="nonzero"/></clipPath><clipPath id="79054b7c82"><path d="M 127.792969 96.445312 L 198.316406 188.277344 L 149.980469 225.398438 L 79.457031 133.566406 Z M 127.792969 96.445312 " clip-rule="nonzero"/></clipPath><clipPath id="2a0604e7c1"><path d="M 0.398438 0.238281 L 119.441406 0.238281 L 119.441406 129.601562 L 0.398438 129.601562 Z M 0.398438 0.238281 " clip-rule="nonzero"/></clipPath><clipPath id="985ce21799"><path d="M 48.792969 0.445312 L 119.316406 92.277344 L 70.980469 129.398438 L 0.457031 37.566406 Z M 48.792969 0.445312 " clip-rule="nonzero"/></clipPath><clipPath id="382b083a48"><rect x="0" width="120" y="0" height="130"/></clipPath><clipPath id="4dc0fdf1b8"><path d="M 79 151 L 199 151 L 199 280 L 79 280 Z M 79 151 " clip-rule="nonzero"/></clipPath><clipPath id="cf4a92e271"><path d="M 198.414062 188.394531 L 126.269531 279.316406 L 79.402344 242.125 L 151.546875 151.207031 Z M 198.414062 188.394531 " clip-rule="nonzero"/></clipPath><clipPath id="291d386548"><path d="M 0.398438 0.199219 L 119.441406 0.199219 L 119.441406 128.359375 L 0.398438 128.359375 Z M 0.398438 0.199219 " clip-rule="nonzero"/></clipPath><clipPath id="5b78dad055"><path d="M 119.414062 37.394531 L 47.269531 128.316406 L 0.402344 91.125 L 72.546875 0.207031 Z M 119.414062 37.394531 " clip-rule="nonzero"/></clipPath><clipPath id="0c0779c8f9"><rect x="0" width="120" y="0" height="129"/></clipPath><clipPath id="42e0524478"><path d="M 12.539062 275.199219 L 89.761719 275.199219 L 89.761719 373.839844 L 12.539062 373.839844 Z M 12.539062 275.199219 " clip-rule="nonzero"/></clipPath><clipPath id="0a129f442a"><path d="M 51.148438 275.199219 L 89.761719 324.394531 L 51.148438 373.59375 L 12.539062 324.394531 Z M 51.148438 275.199219 " clip-rule="nonzero"/></clipPath><clipPath id="4d12293e22"><path d="M 0.539062 0.199219 L 77.761719 0.199219 L 77.761719 98.679688 L 0.539062 98.679688 Z M 0.539062 0.199219 " clip-rule="nonzero"/></clipPath><clipPath id="2264254c0d"><path d="M 39.148438 0.199219 L 77.761719 49.394531 L 39.148438 98.59375 L 0.539062 49.394531 Z M 39.148438 0.199219 " clip-rule="nonzero"/></clipPath><clipPath id="74b2c388e3"><rect x="0" width="78" y="0" height="99"/></clipPath><clipPath id="4387afe529"><path d="M 12.539062 2.433594 L 89.761719 2.433594 L 89.761719 101 L 12.539062 101 Z M 12.539062 2.433594 " clip-rule="nonzero"/></clipPath><clipPath id="7d3c72d3a2"><path d="M 51.148438 2.433594 L 89.761719 51.628906 L 51.148438 100.824219 L 12.539062 51.628906 Z M 51.148438 2.433594 " clip-rule="nonzero"/></clipPath><clipPath id="48ff85ac6e"><path d="M 0.539062 0.433594 L 77.761719 0.433594 L 77.761719 99 L 0.539062 99 Z M 0.539062 0.433594 " clip-rule="nonzero"/></clipPath><clipPath id="6966a5db9b"><path d="M 39.148438 0.433594 L 77.761719 49.628906 L 39.148438 98.824219 L 0.539062 49.628906 Z M 39.148438 0.433594 " clip-rule="nonzero"/></clipPath><clipPath id="87dfc28d9f"><rect x="0" width="78" y="0" height="99"/></clipPath><clipPath id="abb814a17e"><rect x="0" width="205" y="0" height="375"/></clipPath></defs><g transform="matrix(1, 0, 0, 1, 85, 0)"><g clip-path="url(#abb814a17e)"><g clip-path="url(#eb00af9563)"><g clip-path="url(#4fa87f6bc9)"><g clip-path="url(#b423044b9c)"><g transform="matrix(1, 0, 0, 1, 79, 83)"><g clip-path="url(#b06b9f89ee)"><g clip-path="url(#e33b052763)"><g clip-path="url(#4106f16b2a)"><g clip-path="url(#47eeda5585)"><path fill="#000000" d="M 38.800781 0.421875 L 58.804688 26.464844 L 10.480469 63.578125 L -9.523438 37.53125 Z M 38.800781 0.421875 " fill-opacity="1" fill-rule="nonzero"/></g></g></g></g></g></g></g></g><g clip-path="url(#31f81abc46)"><g clip-path="url(#02d4a9e8cc)"><g clip-path="url(#2b6c055ad1)"><g transform="matrix(1, 0, 0, 1, 79, 242)"><g clip-path="url(#65e82f3ca7)"><g clip-path="url(#4ea419f214)"><g clip-path="url(#061769356b)"><g clip-path="url(#660cde3906)"><path fill="#000000" d="M 58.621094 23.453125 L 38.792969 49.628906 L -9.164062 13.304688 L 10.664062 -12.871094 Z M 58.621094 23.453125 " fill-opacity="1" fill-rule="nonzero"/></g></g></g></g></g></g></g></g><g clip-path="url(#4066382696)"><g clip-path="url(#79054b7c82)"><g transform="matrix(1, 0, 0, 1, 79, 96)"><g clip-path="url(#382b083a48)"><g clip-path="url(#2a0604e7c1)"><g clip-path="url(#985ce21799)"><path fill="#000000" d="M 48.792969 0.445312 L 119.261719 92.207031 L 70.929688 129.328125 L 0.457031 37.566406 Z M 48.792969 0.445312 " fill-opacity="1" fill-rule="nonzero"/></g></g></g></g></g></g><g clip-path="url(#4dc0fdf1b8)"><g clip-path="url(#cf4a92e271)"><g transform="matrix(1, 0, 0, 1, 79, 151)"><g clip-path="url(#0c0779c8f9)"><g clip-path="url(#291d386548)"><g clip-path="url(#5b78dad055)"><path fill="#000000" d="M 119.414062 37.394531 L 47.214844 128.382812 L 0.351562 91.195312 L 72.546875 0.207031 Z M 119.414062 37.394531 " fill-opacity="1" fill-rule="nonzero"/></g></g></g></g></g></g><g clip-path="url(#42e0524478)"><g clip-path="url(#0a129f442a)"><g transform="matrix(1, 0, 0, 1, 12, 275)"><g clip-path="url(#74b2c388e3)"><g clip-path="url(#4d12293e22)"><g clip-path="url(#2264254c0d)"><path fill="#000000" d="M 0.539062 0.199219 L 77.761719 0.199219 L 77.761719 98.539062 L 0.539062 98.539062 Z M 0.539062 0.199219 " fill-opacity="1" fill-rule="nonzero"/></g></g></g></g></g></g><g clip-path="url(#4387afe529)"><g clip-path="url(#7d3c72d3a2)"><g transform="matrix(1, 0, 0, 1, 12, 2)"><g clip-path="url(#87dfc28d9f)"><g clip-path="url(#48ff85ac6e)"><g clip-path="url(#6966a5db9b)"><path fill="#000000" d="M 0.539062 0.433594 L 77.761719 0.433594 L 77.761719 98.773438 L 0.539062 98.773438 Z M 0.539062 0.433594 " fill-opacity="1" fill-rule="nonzero"/></g></g></g></g></g></g></g></g></svg>