<svg xmlns="http://www.w3.org/2000/svg" xmlns:xlink="http://www.w3.org/1999/xlink" width="500" zoomAndPan="magnify" viewBox="0 0 375 374.999991" height="500" preserveAspectRatio="xMidYMid meet" version="1.0"><defs><clipPath id="e43fb104eb"><path d="M 79 83 L 138 83 L 138 134 L 79 134 Z M 79 83 " clip-rule="nonzero"/></clipPath><clipPath id="c3e3cd0aed"><path d="M 117.800781 83.421875 L 137.804688 109.464844 L 89.378906 146.65625 L 69.375 120.609375 Z M 117.800781 83.421875 " clip-rule="nonzero"/></clipPath><clipPath id="b114eafcce"><path d="M 79.457031 133.570312 L 137.804688 109.464844 L 117.800781 83.421875 Z M 79.457031 133.570312 " clip-rule="nonzero"/></clipPath><clipPath id="9b73a6b61a"><path d="M 0.398438 0.28125 L 58.960938 0.28125 L 58.960938 50.679688 L 0.398438 50.679688 Z M 0.398438 0.28125 " clip-rule="nonzero"/></clipPath><clipPath id="68db5dc10e"><path d="M 38.800781 0.421875 L 58.804688 26.464844 L 10.378906 63.65625 L -9.625 37.609375 Z M 38.800781 0.421875 " clip-rule="nonzero"/></clipPath><clipPath id="b6ffb92ffd"><path d="M 0.457031 50.570312 L 58.804688 26.464844 L 38.800781 0.421875 Z M 0.457031 50.570312 " clip-rule="nonzero"/></clipPath><clipPath id="322c2c9e6a"><rect x="0" width="59" y="0" height="51"/></clipPath><clipPath id="2e09f39966"><path d="M 79 242 L 138 242 L 138 292 L 79 292 Z M 79 242 " clip-rule="nonzero"/></clipPath><clipPath id="7ec7fcf765"><path d="M 137.621094 265.453125 L 117.792969 291.628906 L 69.835938 255.304688 L 89.664062 229.128906 Z M 137.621094 265.453125 " clip-rule="nonzero"/></clipPath><clipPath id="e3ea0d9499"><path d="M 79.757812 242.222656 L 117.792969 291.628906 L 137.621094 265.453125 Z M 79.757812 242.222656 " clip-rule="nonzero"/></clipPath><clipPath id="4f99c43167"><path d="M 0.640625 0.160156 L 58.71875 0.160156 L 58.71875 49.839844 L 0.640625 49.839844 Z M 0.640625 0.160156 " clip-rule="nonzero"/></clipPath><clipPath id="9405863926"><path d="M 58.621094 23.453125 L 38.792969 49.628906 L -9.164062 13.304688 L 10.664062 -12.871094 Z M 58.621094 23.453125 " clip-rule="nonzero"/></clipPath><clipPath id="377c02265f"><path d="M 0.757812 0.222656 L 38.792969 49.628906 L 58.621094 23.453125 Z M 0.757812 0.222656 " clip-rule="nonzero"/></clipPath><clipPath id="d7aaf46961"><rect x="0" width="59" y="0" height="50"/></clipPath><clipPath id="16f3e956bf"><path d="M 79 96 L 199 96 L 199 226 L 79 226 Z M 79 96 " clip-rule="nonzero"/></clipPath><clipPath id="22e071de87"><path d="M 127.792969 96.445312 L 198.316406 188.277344 L 149.980469 225.398438 L 79.457031 133.566406 Z M 127.792969 96.445312 " clip-rule="nonzero"/></clipPath><clipPath id="dd38c1d4a5"><path d="M 0.398438 0.238281 L 119.441406 0.238281 L 119.441406 129.601562 L 0.398438 129.601562 Z M 0.398438 0.238281 " clip-rule="nonzero"/></clipPath><clipPath id="6a8371f593"><path d="M 48.792969 0.445312 L 119.316406 92.277344 L 70.980469 129.398438 L 0.457031 37.566406 Z M 48.792969 0.445312 " clip-rule="nonzero"/></clipPath><clipPath id="997c7ef2c5"><rect x="0" width="120" y="0" height="130"/></clipPath><clipPath id="195d2450d4"><path d="M 79 151 L 199 151 L 199 280 L 79 280 Z M 79 151 " clip-rule="nonzero"/></clipPath><clipPath id="a90319b495"><path d="M 198.414062 188.394531 L 126.269531 279.316406 L 79.402344 242.125 L 151.546875 151.207031 Z M 198.414062 188.394531 " clip-rule="nonzero"/></clipPath><clipPath id="2c4e441375"><path d="M 0.398438 0.199219 L 119.441406 0.199219 L 119.441406 128.359375 L 0.398438 128.359375 Z M 0.398438 0.199219 " clip-rule="nonzero"/></clipPath><clipPath id="ea9543c6a2"><path d="M 119.414062 37.394531 L 47.269531 128.316406 L 0.402344 91.125 L 72.546875 0.207031 Z M 119.414062 37.394531 " clip-rule="nonzero"/></clipPath><clipPath id="a3509f0203"><rect x="0" width="120" y="0" height="129"/></clipPath><clipPath id="7c86083993"><path d="M 12.539062 275.199219 L 89.761719 275.199219 L 89.761719 373.839844 L 12.539062 373.839844 Z M 12.539062 275.199219 " clip-rule="nonzero"/></clipPath><clipPath id="3e965caca8"><path d="M 51.148438 275.199219 L 89.761719 324.394531 L 51.148438 373.59375 L 12.539062 324.394531 Z M 51.148438 275.199219 " clip-rule="nonzero"/></clipPath><clipPath id="8c504bc4bb"><path d="M 0.539062 0.199219 L 77.761719 0.199219 L 77.761719 98.679688 L 0.539062 98.679688 Z M 0.539062 0.199219 " clip-rule="nonzero"/></clipPath><clipPath id="72cef18f2b"><path d="M 39.148438 0.199219 L 77.761719 49.394531 L 39.148438 98.59375 L 0.539062 49.394531 Z M 39.148438 0.199219 " clip-rule="nonzero"/></clipPath><clipPath id="9c8acc24c1"><rect x="0" width="78" y="0" height="99"/></clipPath><clipPath id="6b93ad7836"><path d="M 12.539062 2.433594 L 89.761719 2.433594 L 89.761719 101 L 12.539062 101 Z M 12.539062 2.433594 " clip-rule="nonzero"/></clipPath><clipPath id="a60bfa4c0b"><path d="M 51.148438 2.433594 L 89.761719 51.628906 L 51.148438 100.824219 L 12.539062 51.628906 Z M 51.148438 2.433594 " clip-rule="nonzero"/></clipPath><clipPath id="3175d9c450"><path d="M 0.539062 0.433594 L 77.761719 0.433594 L 77.761719 99 L 0.539062 99 Z M 0.539062 0.433594 " clip-rule="nonzero"/></clipPath><clipPath id="552f1ef793"><path d="M 39.148438 0.433594 L 77.761719 49.628906 L 39.148438 98.824219 L 0.539062 49.628906 Z M 39.148438 0.433594 " clip-rule="nonzero"/></clipPath><clipPath id="42111d9e41"><rect x="0" width="78" y="0" height="99"/></clipPath><clipPath id="956661ae2b"><rect x="0" width="205" y="0" height="375"/></clipPath></defs><g transform="matrix(1, 0, 0, 1, 85, 0)"><g clip-path="url(#956661ae2b)"><g clip-path="url(#e43fb104eb)"><g clip-path="url(#c3e3cd0aed)"><g clip-path="url(#b114eafcce)"><g transform="matrix(1, 0, 0, 1, 79, 83)"><g clip-path="url(#322c2c9e6a)"><g clip-path="url(#9b73a6b61a)"><g clip-path="url(#68db5dc10e)"><g clip-path="url(#b6ffb92ffd)"><path fill="#ffffff" d="M 38.800781 0.421875 L 58.804688 26.464844 L 10.480469 63.578125 L -9.523438 37.53125 Z M 38.800781 0.421875 " fill-opacity="1" fill-rule="nonzero"/></g></g></g></g></g></g></g></g><g clip-path="url(#2e09f39966)"><g clip-path="url(#7ec7fcf765)"><g clip-path="url(#e3ea0d9499)"><g transform="matrix(1, 0, 0, 1, 79, 242)"><g clip-path="url(#d7aaf46961)"><g clip-path="url(#4f99c43167)"><g clip-path="url(#9405863926)"><g clip-path="url(#377c02265f)"><path fill="#ffffff" d="M 58.621094 23.453125 L 38.792969 49.628906 L -9.164062 13.304688 L 10.664062 -12.871094 Z M 58.621094 23.453125 " fill-opacity="1" fill-rule="nonzero"/></g></g></g></g></g></g></g></g><g clip-path="url(#16f3e956bf)"><g clip-path="url(#22e071de87)"><g transform="matrix(1, 0, 0, 1, 79, 96)"><g clip-path="url(#997c7ef2c5)"><g clip-path="url(#dd38c1d4a5)"><g clip-path="url(#6a8371f593)"><path fill="#ffffff" d="M 48.792969 0.445312 L 119.261719 92.207031 L 70.929688 129.328125 L 0.457031 37.566406 Z M 48.792969 0.445312 " fill-opacity="1" fill-rule="nonzero"/></g></g></g></g></g></g><g clip-path="url(#195d2450d4)"><g clip-path="url(#a90319b495)"><g transform="matrix(1, 0, 0, 1, 79, 151)"><g clip-path="url(#a3509f0203)"><g clip-path="url(#2c4e441375)"><g clip-path="url(#ea9543c6a2)"><path fill="#ffffff" d="M 119.414062 37.394531 L 47.214844 128.382812 L 0.351562 91.195312 L 72.546875 0.207031 Z M 119.414062 37.394531 " fill-opacity="1" fill-rule="nonzero"/></g></g></g></g></g></g><g clip-path="url(#7c86083993)"><g clip-path="url(#3e965caca8)"><g transform="matrix(1, 0, 0, 1, 12, 275)"><g clip-path="url(#9c8acc24c1)"><g clip-path="url(#8c504bc4bb)"><g clip-path="url(#72cef18f2b)"><path fill="#ffffff" d="M 0.539062 0.199219 L 77.761719 0.199219 L 77.761719 98.539062 L 0.539062 98.539062 Z M 0.539062 0.199219 " fill-opacity="1" fill-rule="nonzero"/></g></g></g></g></g></g><g clip-path="url(#6b93ad7836)"><g clip-path="url(#a60bfa4c0b)"><g transform="matrix(1, 0, 0, 1, 12, 2)"><g clip-path="url(#42111d9e41)"><g clip-path="url(#3175d9c450)"><g clip-path="url(#552f1ef793)"><path fill="#ffffff" d="M 0.539062 0.433594 L 77.761719 0.433594 L 77.761719 98.773438 L 0.539062 98.773438 Z M 0.539062 0.433594 " fill-opacity="1" fill-rule="nonzero"/></g></g></g></g></g></g></g></g></svg>