<svg xmlns="http://www.w3.org/2000/svg" xmlns:xlink="http://www.w3.org/1999/xlink" width="2000" zoomAndPan="magnify" viewBox="0 0 1500 1499.999933" height="2000" preserveAspectRatio="xMidYMid meet" version="1.0"><defs><clipPath id="f6e108879a"><path d="M 52 5 L 250 5 L 250 175 L 52 175 Z M 52 5 " clip-rule="nonzero"/></clipPath><clipPath id="8cec75bc07"><path d="M 182.253906 5.652344 L 249.738281 93.527344 L 86.347656 219.007812 L 18.859375 131.132812 Z M 182.253906 5.652344 " clip-rule="nonzero"/></clipPath><clipPath id="804e601c2a"><path d="M 52.878906 174.859375 L 249.738281 93.527344 L 182.253906 5.652344 Z M 52.878906 174.859375 " clip-rule="nonzero"/></clipPath><clipPath id="ae82147b65"><path d="M 0.800781 0.519531 L 197.839844 0.519531 L 197.839844 169.960938 L 0.800781 169.960938 Z M 0.800781 0.519531 " clip-rule="nonzero"/></clipPath><clipPath id="51f9fd24ea"><path d="M 130.253906 0.652344 L 197.738281 88.527344 L 34.347656 214.007812 L -33.140625 126.132812 Z M 130.253906 0.652344 " clip-rule="nonzero"/></clipPath><clipPath id="0dc310498c"><path d="M 0.878906 169.859375 L 197.738281 88.527344 L 130.253906 0.652344 Z M 0.878906 169.859375 " clip-rule="nonzero"/></clipPath><clipPath id="fbfcec0974"><rect x="0" width="198" y="0" height="170"/></clipPath><clipPath id="044fd05958"><path d="M 53 541 L 250 541 L 250 709 L 53 709 Z M 53 541 " clip-rule="nonzero"/></clipPath><clipPath id="90eeb3fa40"><path d="M 249.117188 619.839844 L 182.214844 708.160156 L 20.410156 585.59375 L 87.3125 497.273438 Z M 249.117188 619.839844 " clip-rule="nonzero"/></clipPath><clipPath id="ef3bf66696"><path d="M 53.894531 541.457031 L 182.214844 708.160156 L 249.117188 619.839844 Z M 53.894531 541.457031 " clip-rule="nonzero"/></clipPath><clipPath id="5e711cbeb6"><path d="M 0.761719 0.441406 L 196.121094 0.441406 L 196.121094 167.238281 L 0.761719 167.238281 Z M 0.761719 0.441406 " clip-rule="nonzero"/></clipPath><clipPath id="020448e79e"><path d="M 196.117188 78.839844 L 129.214844 167.160156 L -32.589844 44.59375 L 34.3125 -43.726562 Z M 196.117188 78.839844 " clip-rule="nonzero"/></clipPath><clipPath id="e372406b24"><path d="M 0.894531 0.457031 L 129.214844 167.160156 L 196.117188 78.839844 Z M 0.894531 0.457031 " clip-rule="nonzero"/></clipPath><clipPath id="9a55a9a30b"><rect x="0" width="197" y="0" height="168"/></clipPath><clipPath id="f5b7e2456b"><path d="M 52 49 L 454 49 L 454 485 L 52 485 Z M 52 49 " clip-rule="nonzero"/></clipPath><clipPath id="4991cb7ee1"><path d="M 215.960938 49.601562 L 453.914062 359.441406 L 290.824219 484.6875 L 52.875 174.847656 Z M 215.960938 49.601562 " clip-rule="nonzero"/></clipPath><clipPath id="2ab4f80faa"><path d="M 0.800781 0.441406 L 402 0.441406 L 402 435.800781 L 0.800781 435.800781 Z M 0.800781 0.441406 " clip-rule="nonzero"/></clipPath><clipPath id="18b76a0116"><path d="M 163.960938 0.601562 L 401.914062 310.441406 L 238.824219 435.6875 L 0.875 125.847656 Z M 163.960938 0.601562 " clip-rule="nonzero"/></clipPath><clipPath id="d642986917"><rect x="0" width="402" y="0" height="436"/></clipPath><clipPath id="bce23b51d8"><path d="M 52 234 L 455 234 L 455 667 L 52 667 Z M 52 234 " clip-rule="nonzero"/></clipPath><clipPath id="a1b764fb16"><path d="M 454.242188 359.839844 L 210.824219 666.609375 L 52.691406 541.132812 L 296.109375 234.363281 Z M 454.242188 359.839844 " clip-rule="nonzero"/></clipPath><clipPath id="1ca14cd549"><path d="M 0.558594 0.238281 L 402.320312 0.238281 L 402.320312 432.71875 L 0.558594 432.71875 Z M 0.558594 0.238281 " clip-rule="nonzero"/></clipPath><clipPath id="311009fc7b"><path d="M 402.242188 125.839844 L 158.824219 432.609375 L 0.691406 307.132812 L 244.109375 0.363281 Z M 402.242188 125.839844 " clip-rule="nonzero"/></clipPath><clipPath id="5e068f3b92"><rect x="0" width="403" y="0" height="433"/></clipPath><clipPath id="4811b5e471"><rect x="0" width="466" y="0" height="717"/></clipPath><clipPath id="e20f0c2a61"><path d="M 52 5 L 250 5 L 250 175 L 52 175 Z M 52 5 " clip-rule="nonzero"/></clipPath><clipPath id="16100abba4"><path d="M 181.914062 5.054688 L 249.398438 92.929688 L 86.003906 218.410156 L 18.519531 130.535156 Z M 181.914062 5.054688 " clip-rule="nonzero"/></clipPath><clipPath id="22c80f52bd"><path d="M 52.539062 174.261719 L 249.398438 92.929688 L 181.914062 5.054688 Z M 52.539062 174.261719 " clip-rule="nonzero"/></clipPath><clipPath id="0e477b79df"><path d="M 0.480469 0.0390625 L 197.519531 0.0390625 L 197.519531 169.480469 L 0.480469 169.480469 Z M 0.480469 0.0390625 " clip-rule="nonzero"/></clipPath><clipPath id="a518127114"><path d="M 129.914062 0.0546875 L 197.398438 87.929688 L 34.003906 213.410156 L -33.480469 125.535156 Z M 129.914062 0.0546875 " clip-rule="nonzero"/></clipPath><clipPath id="ebccf8b3d6"><path d="M 0.539062 169.261719 L 197.398438 87.929688 L 129.914062 0.0546875 Z M 0.539062 169.261719 " clip-rule="nonzero"/></clipPath><clipPath id="b434c5107c"><rect x="0" width="198" y="0" height="170"/></clipPath><clipPath id="556506d045"><path d="M 53 540 L 249 540 L 249 708 L 53 708 Z M 53 540 " clip-rule="nonzero"/></clipPath><clipPath id="d447ca3024"><path d="M 248.777344 619.242188 L 181.875 707.5625 L 20.070312 584.996094 L 86.972656 496.675781 Z M 248.777344 619.242188 " clip-rule="nonzero"/></clipPath><clipPath id="8ad29e2df6"><path d="M 53.554688 540.859375 L 181.875 707.5625 L 248.777344 619.242188 Z M 53.554688 540.859375 " clip-rule="nonzero"/></clipPath><clipPath id="c9290427d8"><path d="M 0.441406 0.71875 L 195.800781 0.71875 L 195.800781 167.761719 L 0.441406 167.761719 Z M 0.441406 0.71875 " clip-rule="nonzero"/></clipPath><clipPath id="3176b678fc"><path d="M 195.777344 79.242188 L 128.875 167.5625 L -32.929688 44.996094 L 33.972656 -43.324219 Z M 195.777344 79.242188 " clip-rule="nonzero"/></clipPath><clipPath id="bbbec43bec"><path d="M 0.554688 0.859375 L 128.875 167.5625 L 195.777344 79.242188 Z M 0.554688 0.859375 " clip-rule="nonzero"/></clipPath><clipPath id="86fdfdf451"><rect x="0" width="196" y="0" height="168"/></clipPath><clipPath id="dae2fde4a2"><path d="M 52 49 L 454 49 L 454 485 L 52 485 Z M 52 49 " clip-rule="nonzero"/></clipPath><clipPath id="ad80222578"><path d="M 215.621094 49.003906 L 453.570312 358.84375 L 290.484375 484.089844 L 52.535156 174.246094 Z M 215.621094 49.003906 " clip-rule="nonzero"/></clipPath><clipPath id="c342bff94f"><path d="M 0.480469 0 L 401.761719 0 L 401.761719 435 L 0.480469 435 Z M 0.480469 0 " clip-rule="nonzero"/></clipPath><clipPath id="99a922dab0"><path d="M 163.621094 0.00390625 L 401.570312 309.84375 L 238.484375 435.089844 L 0.535156 125.246094 Z M 163.621094 0.00390625 " clip-rule="nonzero"/></clipPath><clipPath id="d09d1a4449"><rect x="0" width="402" y="0" height="436"/></clipPath><clipPath id="2037471c0a"><path d="M 52 233 L 454 233 L 454 667 L 52 667 Z M 52 233 " clip-rule="nonzero"/></clipPath><clipPath id="20b7842d63"><path d="M 453.898438 359.242188 L 210.484375 666.011719 L 52.351562 540.535156 L 295.769531 233.765625 Z M 453.898438 359.242188 " clip-rule="nonzero"/></clipPath><clipPath id="1a52954e1e"><path d="M 0.238281 0.761719 L 402 0.761719 L 402 433.238281 L 0.238281 433.238281 Z M 0.238281 0.761719 " clip-rule="nonzero"/></clipPath><clipPath id="7d8ae4bd83"><path d="M 401.898438 126.242188 L 158.484375 433.011719 L 0.351562 307.535156 L 243.769531 0.765625 Z M 401.898438 126.242188 " clip-rule="nonzero"/></clipPath><clipPath id="3452e29c74"><rect x="0" width="402" y="0" height="434"/></clipPath><clipPath id="7ff325a6ef"><rect x="0" width="465" y="0" height="716"/></clipPath><clipPath id="e22591ab8a"><path d="M 52 5 L 250 5 L 250 175 L 52 175 Z M 52 5 " clip-rule="nonzero"/></clipPath><clipPath id="c5f4166d6a"><path d="M 181.914062 5.25 L 249.398438 93.125 L 86.003906 218.605469 L 18.519531 130.730469 Z M 181.914062 5.25 " clip-rule="nonzero"/></clipPath><clipPath id="0d8e0359a6"><path d="M 52.539062 174.457031 L 249.398438 93.125 L 181.914062 5.25 Z M 52.539062 174.457031 " clip-rule="nonzero"/></clipPath><clipPath id="692834dbc2"><path d="M 0.480469 0.121094 L 197.519531 0.121094 L 197.519531 169.558594 L 0.480469 169.558594 Z M 0.480469 0.121094 " clip-rule="nonzero"/></clipPath><clipPath id="446b85b899"><path d="M 129.914062 0.25 L 197.398438 88.125 L 34.003906 213.605469 L -33.480469 125.730469 Z M 129.914062 0.25 " clip-rule="nonzero"/></clipPath><clipPath id="5f9802f3ba"><path d="M 0.539062 169.457031 L 197.398438 88.125 L 129.914062 0.25 Z M 0.539062 169.457031 " clip-rule="nonzero"/></clipPath><clipPath id="193388f12b"><rect x="0" width="198" y="0" height="170"/></clipPath><clipPath id="c419024577"><path d="M 53 541 L 249 541 L 249 708 L 53 708 Z M 53 541 " clip-rule="nonzero"/></clipPath><clipPath id="bc8bd99bfe"><path d="M 248.777344 619.4375 L 181.875 707.757812 L 20.070312 585.191406 L 86.972656 496.871094 Z M 248.777344 619.4375 " clip-rule="nonzero"/></clipPath><clipPath id="d2e715ea21"><path d="M 53.554688 541.054688 L 181.875 707.757812 L 248.777344 619.4375 Z M 53.554688 541.054688 " clip-rule="nonzero"/></clipPath><clipPath id="d1002efed6"><path d="M 0.441406 0.0390625 L 195.800781 0.0390625 L 195.800781 166.839844 L 0.441406 166.839844 Z M 0.441406 0.0390625 " clip-rule="nonzero"/></clipPath><clipPath id="2144fb7418"><path d="M 195.777344 78.4375 L 128.875 166.757812 L -32.929688 44.191406 L 33.972656 -44.128906 Z M 195.777344 78.4375 " clip-rule="nonzero"/></clipPath><clipPath id="056c20dee5"><path d="M 0.554688 0.0546875 L 128.875 166.757812 L 195.777344 78.4375 Z M 0.554688 0.0546875 " clip-rule="nonzero"/></clipPath><clipPath id="8d50c98aa4"><rect x="0" width="196" y="0" height="167"/></clipPath><clipPath id="abf553685f"><path d="M 52 49 L 454 49 L 454 485 L 52 485 Z M 52 49 " clip-rule="nonzero"/></clipPath><clipPath id="ab80119d0f"><path d="M 215.621094 49.199219 L 453.570312 359.039062 L 290.484375 484.285156 L 52.535156 174.445312 Z M 215.621094 49.199219 " clip-rule="nonzero"/></clipPath><clipPath id="d705893b3d"><path d="M 0.480469 0.0390625 L 401.761719 0.0390625 L 401.761719 435.398438 L 0.480469 435.398438 Z M 0.480469 0.0390625 " clip-rule="nonzero"/></clipPath><clipPath id="a73539386b"><path d="M 163.621094 0.199219 L 401.570312 310.039062 L 238.484375 435.285156 L 0.535156 125.445312 Z M 163.621094 0.199219 " clip-rule="nonzero"/></clipPath><clipPath id="9e275c2b17"><rect x="0" width="402" y="0" height="436"/></clipPath><clipPath id="c60143d9ad"><path d="M 52 233 L 454 233 L 454 667 L 52 667 Z M 52 233 " clip-rule="nonzero"/></clipPath><clipPath id="e968dbe493"><path d="M 453.898438 359.4375 L 210.484375 666.207031 L 52.351562 540.730469 L 295.769531 233.964844 Z M 453.898438 359.4375 " clip-rule="nonzero"/></clipPath><clipPath id="961dededd8"><path d="M 0.238281 0.839844 L 402 0.839844 L 402 433.320312 L 0.238281 433.320312 Z M 0.238281 0.839844 " clip-rule="nonzero"/></clipPath><clipPath id="b3a6e2ff7f"><path d="M 401.898438 126.4375 L 158.484375 433.207031 L 0.351562 307.730469 L 243.769531 0.964844 Z M 401.898438 126.4375 " clip-rule="nonzero"/></clipPath><clipPath id="1e46fe341d"><rect x="0" width="402" y="0" height="434"/></clipPath><clipPath id="0d099d8548"><rect x="0" width="465" y="0" height="716"/></clipPath></defs><g transform="matrix(1, 0, 0, 1, 678, 390)"><g clip-path="url(#4811b5e471)"><g clip-path="url(#f6e108879a)"><g clip-path="url(#8cec75bc07)"><g clip-path="url(#804e601c2a)"><g transform="matrix(1, 0, 0, 1, 52, 5)"><g clip-path="url(#fbfcec0974)"><g clip-path="url(#ae82147b65)"><g clip-path="url(#51f9fd24ea)"><g clip-path="url(#0dc310498c)"><path fill="#ffffff" d="M 130.253906 0.652344 L 197.738281 88.527344 L 34.6875 213.746094 L -32.796875 125.871094 Z M 130.253906 0.652344 " fill-opacity="1" fill-rule="nonzero"/></g></g></g></g></g></g></g></g><g clip-path="url(#044fd05958)"><g clip-path="url(#90eeb3fa40)"><g clip-path="url(#ef3bf66696)"><g transform="matrix(1, 0, 0, 1, 53, 541)"><g clip-path="url(#9a55a9a30b)"><g clip-path="url(#5e711cbeb6)"><g clip-path="url(#020448e79e)"><g clip-path="url(#e372406b24)"><path fill="#ffffff" d="M 196.117188 78.839844 L 129.214844 167.160156 L -32.589844 44.59375 L 34.3125 -43.726562 Z M 196.117188 78.839844 " fill-opacity="1" fill-rule="nonzero"/></g></g></g></g></g></g></g></g><g clip-path="url(#f5b7e2456b)"><g clip-path="url(#4991cb7ee1)"><g transform="matrix(1, 0, 0, 1, 52, 49)"><g clip-path="url(#d642986917)"><g clip-path="url(#2ab4f80faa)"><g clip-path="url(#18b76a0116)"><path fill="#ffffff" d="M 163.960938 0.601562 L 401.734375 310.210938 L 238.648438 435.457031 L 0.875 125.847656 Z M 163.960938 0.601562 " fill-opacity="1" fill-rule="nonzero"/></g></g></g></g></g></g><g clip-path="url(#bce23b51d8)"><g clip-path="url(#a1b764fb16)"><g transform="matrix(1, 0, 0, 1, 52, 234)"><g clip-path="url(#5e068f3b92)"><g clip-path="url(#1ca14cd549)"><g clip-path="url(#311009fc7b)"><path fill="#ffffff" d="M 402.242188 125.839844 L 158.644531 432.835938 L 0.511719 307.363281 L 244.109375 0.363281 Z M 402.242188 125.839844 " fill-opacity="1" fill-rule="nonzero"/></g></g></g></g></g></g></g></g><g transform="matrix(1, 0, 0, 1, 356, 0.000000000000112861)"><g clip-path="url(#7ff325a6ef)"><g clip-path="url(#e20f0c2a61)"><g clip-path="url(#16100abba4)"><g clip-path="url(#22c80f52bd)"><g transform="matrix(1, 0, 0, 1, 52, 5)"><g clip-path="url(#b434c5107c)"><g clip-path="url(#0e477b79df)"><g clip-path="url(#a518127114)"><g clip-path="url(#ebccf8b3d6)"><path fill="#ffffff" d="M 129.914062 0.0546875 L 197.398438 87.929688 L 34.347656 213.148438 L -33.136719 125.269531 Z M 129.914062 0.0546875 " fill-opacity="1" fill-rule="nonzero"/></g></g></g></g></g></g></g></g><g clip-path="url(#556506d045)"><g clip-path="url(#d447ca3024)"><g clip-path="url(#8ad29e2df6)"><g transform="matrix(1, 0, 0, 1, 53, 540)"><g clip-path="url(#86fdfdf451)"><g clip-path="url(#c9290427d8)"><g clip-path="url(#3176b678fc)"><g clip-path="url(#bbbec43bec)"><path fill="#ffffff" d="M 195.777344 79.242188 L 128.875 167.5625 L -32.929688 44.996094 L 33.972656 -43.324219 Z M 195.777344 79.242188 " fill-opacity="1" fill-rule="nonzero"/></g></g></g></g></g></g></g></g><g clip-path="url(#dae2fde4a2)"><g clip-path="url(#ad80222578)"><g transform="matrix(1, 0, 0, 1, 52, 49)"><g clip-path="url(#d09d1a4449)"><g clip-path="url(#c342bff94f)"><g clip-path="url(#99a922dab0)"><path fill="#ffffff" d="M 163.621094 0.00390625 L 401.394531 309.613281 L 238.308594 434.859375 L 0.535156 125.246094 Z M 163.621094 0.00390625 " fill-opacity="1" fill-rule="nonzero"/></g></g></g></g></g></g><g clip-path="url(#2037471c0a)"><g clip-path="url(#20b7842d63)"><g transform="matrix(1, 0, 0, 1, 52, 233)"><g clip-path="url(#3452e29c74)"><g clip-path="url(#1a52954e1e)"><g clip-path="url(#7d8ae4bd83)"><path fill="#ffffff" d="M 401.898438 126.242188 L 158.304688 433.238281 L 0.171875 307.761719 L 243.769531 0.765625 Z M 401.898438 126.242188 " fill-opacity="1" fill-rule="nonzero"/></g></g></g></g></g></g></g></g><g transform="matrix(1, 0, 0, 1, 356, 784)"><g clip-path="url(#0d099d8548)"><g clip-path="url(#e22591ab8a)"><g clip-path="url(#c5f4166d6a)"><g clip-path="url(#0d8e0359a6)"><g transform="matrix(1, 0, 0, 1, 52, 5)"><g clip-path="url(#193388f12b)"><g clip-path="url(#692834dbc2)"><g clip-path="url(#446b85b899)"><g clip-path="url(#5f9802f3ba)"><path fill="#ffffff" d="M 129.914062 0.25 L 197.398438 88.125 L 34.347656 213.34375 L -33.136719 125.46875 Z M 129.914062 0.25 " fill-opacity="1" fill-rule="nonzero"/></g></g></g></g></g></g></g></g><g clip-path="url(#c419024577)"><g clip-path="url(#bc8bd99bfe)"><g clip-path="url(#d2e715ea21)"><g transform="matrix(1, 0, 0, 1, 53, 541)"><g clip-path="url(#8d50c98aa4)"><g clip-path="url(#d1002efed6)"><g clip-path="url(#2144fb7418)"><g clip-path="url(#056c20dee5)"><path fill="#ffffff" d="M 195.777344 78.4375 L 128.875 166.757812 L -32.929688 44.191406 L 33.972656 -44.128906 Z M 195.777344 78.4375 " fill-opacity="1" fill-rule="nonzero"/></g></g></g></g></g></g></g></g><g clip-path="url(#abf553685f)"><g clip-path="url(#ab80119d0f)"><g transform="matrix(1, 0, 0, 1, 52, 49)"><g clip-path="url(#9e275c2b17)"><g clip-path="url(#d705893b3d)"><g clip-path="url(#a73539386b)"><path fill="#ffffff" d="M 163.621094 0.199219 L 401.394531 309.808594 L 238.308594 435.054688 L 0.535156 125.445312 Z M 163.621094 0.199219 " fill-opacity="1" fill-rule="nonzero"/></g></g></g></g></g></g><g clip-path="url(#c60143d9ad)"><g clip-path="url(#e968dbe493)"><g transform="matrix(1, 0, 0, 1, 52, 233)"><g clip-path="url(#1e46fe341d)"><g clip-path="url(#961dededd8)"><g clip-path="url(#b3a6e2ff7f)"><path fill="#ffffff" d="M 401.898438 126.4375 L 158.304688 433.433594 L 0.171875 307.960938 L 243.769531 0.964844 Z M 401.898438 126.4375 " fill-opacity="1" fill-rule="nonzero"/></g></g></g></g></g></g></g></g></svg>