<svg xmlns="http://www.w3.org/2000/svg" xmlns:xlink="http://www.w3.org/1999/xlink" width="2000" zoomAndPan="magnify" viewBox="0 0 1500 1499.999933" height="2000" preserveAspectRatio="xMidYMid meet" version="1.0"><defs><clipPath id="fd282402b0"><path d="M 52 5 L 250 5 L 250 175 L 52 175 Z M 52 5 " clip-rule="nonzero"/></clipPath><clipPath id="c7864228a1"><path d="M 182.253906 5.652344 L 249.738281 93.527344 L 86.347656 219.007812 L 18.859375 131.132812 Z M 182.253906 5.652344 " clip-rule="nonzero"/></clipPath><clipPath id="6606af389c"><path d="M 52.878906 174.859375 L 249.738281 93.527344 L 182.253906 5.652344 Z M 52.878906 174.859375 " clip-rule="nonzero"/></clipPath><clipPath id="9f0745d77e"><path d="M 0.800781 0.519531 L 197.839844 0.519531 L 197.839844 169.960938 L 0.800781 169.960938 Z M 0.800781 0.519531 " clip-rule="nonzero"/></clipPath><clipPath id="52af816150"><path d="M 130.253906 0.652344 L 197.738281 88.527344 L 34.347656 214.007812 L -33.140625 126.132812 Z M 130.253906 0.652344 " clip-rule="nonzero"/></clipPath><clipPath id="d3f5457eb0"><path d="M 0.878906 169.859375 L 197.738281 88.527344 L 130.253906 0.652344 Z M 0.878906 169.859375 " clip-rule="nonzero"/></clipPath><clipPath id="57d0b1e43f"><rect x="0" width="198" y="0" height="170"/></clipPath><clipPath id="c2c2550e07"><path d="M 53 541 L 250 541 L 250 709 L 53 709 Z M 53 541 " clip-rule="nonzero"/></clipPath><clipPath id="c1ba4dec16"><path d="M 249.117188 619.839844 L 182.214844 708.160156 L 20.410156 585.59375 L 87.3125 497.273438 Z M 249.117188 619.839844 " clip-rule="nonzero"/></clipPath><clipPath id="0ba63a0612"><path d="M 53.894531 541.457031 L 182.214844 708.160156 L 249.117188 619.839844 Z M 53.894531 541.457031 " clip-rule="nonzero"/></clipPath><clipPath id="3f7a797189"><path d="M 0.761719 0.441406 L 196.121094 0.441406 L 196.121094 167.238281 L 0.761719 167.238281 Z M 0.761719 0.441406 " clip-rule="nonzero"/></clipPath><clipPath id="877945cc79"><path d="M 196.117188 78.839844 L 129.214844 167.160156 L -32.589844 44.59375 L 34.3125 -43.726562 Z M 196.117188 78.839844 " clip-rule="nonzero"/></clipPath><clipPath id="3180c9c8d4"><path d="M 0.894531 0.457031 L 129.214844 167.160156 L 196.117188 78.839844 Z M 0.894531 0.457031 " clip-rule="nonzero"/></clipPath><clipPath id="e391522027"><rect x="0" width="197" y="0" height="168"/></clipPath><clipPath id="640b020d8b"><path d="M 52 49 L 454 49 L 454 485 L 52 485 Z M 52 49 " clip-rule="nonzero"/></clipPath><clipPath id="93782e64b8"><path d="M 215.960938 49.601562 L 453.914062 359.441406 L 290.824219 484.6875 L 52.875 174.847656 Z M 215.960938 49.601562 " clip-rule="nonzero"/></clipPath><clipPath id="f822e7adeb"><path d="M 0.800781 0.441406 L 402 0.441406 L 402 435.800781 L 0.800781 435.800781 Z M 0.800781 0.441406 " clip-rule="nonzero"/></clipPath><clipPath id="e860d3f560"><path d="M 163.960938 0.601562 L 401.914062 310.441406 L 238.824219 435.6875 L 0.875 125.847656 Z M 163.960938 0.601562 " clip-rule="nonzero"/></clipPath><clipPath id="4d443e545d"><rect x="0" width="402" y="0" height="436"/></clipPath><clipPath id="633612eb55"><path d="M 52 234 L 455 234 L 455 667 L 52 667 Z M 52 234 " clip-rule="nonzero"/></clipPath><clipPath id="68f62a7484"><path d="M 454.242188 359.839844 L 210.824219 666.609375 L 52.691406 541.132812 L 296.109375 234.363281 Z M 454.242188 359.839844 " clip-rule="nonzero"/></clipPath><clipPath id="f4477bd6ff"><path d="M 0.558594 0.238281 L 402.320312 0.238281 L 402.320312 432.71875 L 0.558594 432.71875 Z M 0.558594 0.238281 " clip-rule="nonzero"/></clipPath><clipPath id="8838ce241b"><path d="M 402.242188 125.839844 L 158.824219 432.609375 L 0.691406 307.132812 L 244.109375 0.363281 Z M 402.242188 125.839844 " clip-rule="nonzero"/></clipPath><clipPath id="f39b641256"><rect x="0" width="403" y="0" height="433"/></clipPath><clipPath id="431c6d0430"><rect x="0" width="466" y="0" height="717"/></clipPath><clipPath id="0937be98f8"><path d="M 52 5 L 250 5 L 250 175 L 52 175 Z M 52 5 " clip-rule="nonzero"/></clipPath><clipPath id="05145e9ec2"><path d="M 181.914062 5.054688 L 249.398438 92.929688 L 86.003906 218.410156 L 18.519531 130.535156 Z M 181.914062 5.054688 " clip-rule="nonzero"/></clipPath><clipPath id="81533cb674"><path d="M 52.539062 174.261719 L 249.398438 92.929688 L 181.914062 5.054688 Z M 52.539062 174.261719 " clip-rule="nonzero"/></clipPath><clipPath id="6f212b6066"><path d="M 0.480469 0.0390625 L 197.519531 0.0390625 L 197.519531 169.480469 L 0.480469 169.480469 Z M 0.480469 0.0390625 " clip-rule="nonzero"/></clipPath><clipPath id="8c0898340b"><path d="M 129.914062 0.0546875 L 197.398438 87.929688 L 34.003906 213.410156 L -33.480469 125.535156 Z M 129.914062 0.0546875 " clip-rule="nonzero"/></clipPath><clipPath id="8ea8428a83"><path d="M 0.539062 169.261719 L 197.398438 87.929688 L 129.914062 0.0546875 Z M 0.539062 169.261719 " clip-rule="nonzero"/></clipPath><clipPath id="5a40855235"><rect x="0" width="198" y="0" height="170"/></clipPath><clipPath id="151da01b1c"><path d="M 53 540 L 249 540 L 249 708 L 53 708 Z M 53 540 " clip-rule="nonzero"/></clipPath><clipPath id="5d0f74e8df"><path d="M 248.777344 619.242188 L 181.875 707.5625 L 20.070312 584.996094 L 86.972656 496.675781 Z M 248.777344 619.242188 " clip-rule="nonzero"/></clipPath><clipPath id="c57e9d79a0"><path d="M 53.554688 540.859375 L 181.875 707.5625 L 248.777344 619.242188 Z M 53.554688 540.859375 " clip-rule="nonzero"/></clipPath><clipPath id="23b703a055"><path d="M 0.441406 0.71875 L 195.800781 0.71875 L 195.800781 167.761719 L 0.441406 167.761719 Z M 0.441406 0.71875 " clip-rule="nonzero"/></clipPath><clipPath id="5169b90d09"><path d="M 195.777344 79.242188 L 128.875 167.5625 L -32.929688 44.996094 L 33.972656 -43.324219 Z M 195.777344 79.242188 " clip-rule="nonzero"/></clipPath><clipPath id="bd6f714aaa"><path d="M 0.554688 0.859375 L 128.875 167.5625 L 195.777344 79.242188 Z M 0.554688 0.859375 " clip-rule="nonzero"/></clipPath><clipPath id="c4fbbfff04"><rect x="0" width="196" y="0" height="168"/></clipPath><clipPath id="d08b25a406"><path d="M 52 49 L 454 49 L 454 485 L 52 485 Z M 52 49 " clip-rule="nonzero"/></clipPath><clipPath id="706df0e166"><path d="M 215.621094 49.003906 L 453.570312 358.84375 L 290.484375 484.089844 L 52.535156 174.246094 Z M 215.621094 49.003906 " clip-rule="nonzero"/></clipPath><clipPath id="c696d89201"><path d="M 0.480469 0 L 401.761719 0 L 401.761719 435 L 0.480469 435 Z M 0.480469 0 " clip-rule="nonzero"/></clipPath><clipPath id="7d7ac2ab31"><path d="M 163.621094 0.00390625 L 401.570312 309.84375 L 238.484375 435.089844 L 0.535156 125.246094 Z M 163.621094 0.00390625 " clip-rule="nonzero"/></clipPath><clipPath id="1cd604893c"><rect x="0" width="402" y="0" height="436"/></clipPath><clipPath id="8e300bfa8f"><path d="M 52 233 L 454 233 L 454 667 L 52 667 Z M 52 233 " clip-rule="nonzero"/></clipPath><clipPath id="6533b5df7d"><path d="M 453.898438 359.242188 L 210.484375 666.011719 L 52.351562 540.535156 L 295.769531 233.765625 Z M 453.898438 359.242188 " clip-rule="nonzero"/></clipPath><clipPath id="e6adaaf15b"><path d="M 0.238281 0.761719 L 402 0.761719 L 402 433.238281 L 0.238281 433.238281 Z M 0.238281 0.761719 " clip-rule="nonzero"/></clipPath><clipPath id="27692db876"><path d="M 401.898438 126.242188 L 158.484375 433.011719 L 0.351562 307.535156 L 243.769531 0.765625 Z M 401.898438 126.242188 " clip-rule="nonzero"/></clipPath><clipPath id="5facc2f9a4"><rect x="0" width="402" y="0" height="434"/></clipPath><clipPath id="6e3c41bb53"><rect x="0" width="465" y="0" height="716"/></clipPath><clipPath id="29014133c7"><path d="M 52 5 L 250 5 L 250 175 L 52 175 Z M 52 5 " clip-rule="nonzero"/></clipPath><clipPath id="7b08d22a2b"><path d="M 181.914062 5.25 L 249.398438 93.125 L 86.003906 218.605469 L 18.519531 130.730469 Z M 181.914062 5.25 " clip-rule="nonzero"/></clipPath><clipPath id="c981ec6003"><path d="M 52.539062 174.457031 L 249.398438 93.125 L 181.914062 5.25 Z M 52.539062 174.457031 " clip-rule="nonzero"/></clipPath><clipPath id="9465b361f7"><path d="M 0.480469 0.121094 L 197.519531 0.121094 L 197.519531 169.558594 L 0.480469 169.558594 Z M 0.480469 0.121094 " clip-rule="nonzero"/></clipPath><clipPath id="b50e277d14"><path d="M 129.914062 0.25 L 197.398438 88.125 L 34.003906 213.605469 L -33.480469 125.730469 Z M 129.914062 0.25 " clip-rule="nonzero"/></clipPath><clipPath id="1d19fe4da5"><path d="M 0.539062 169.457031 L 197.398438 88.125 L 129.914062 0.25 Z M 0.539062 169.457031 " clip-rule="nonzero"/></clipPath><clipPath id="8cfac4e02c"><rect x="0" width="198" y="0" height="170"/></clipPath><clipPath id="a520e309d4"><path d="M 53 541 L 249 541 L 249 708 L 53 708 Z M 53 541 " clip-rule="nonzero"/></clipPath><clipPath id="9726dcb7a8"><path d="M 248.777344 619.4375 L 181.875 707.757812 L 20.070312 585.191406 L 86.972656 496.871094 Z M 248.777344 619.4375 " clip-rule="nonzero"/></clipPath><clipPath id="1fcaf3aed3"><path d="M 53.554688 541.054688 L 181.875 707.757812 L 248.777344 619.4375 Z M 53.554688 541.054688 " clip-rule="nonzero"/></clipPath><clipPath id="4b7ebc019f"><path d="M 0.441406 0.0390625 L 195.800781 0.0390625 L 195.800781 166.839844 L 0.441406 166.839844 Z M 0.441406 0.0390625 " clip-rule="nonzero"/></clipPath><clipPath id="b257c5d911"><path d="M 195.777344 78.4375 L 128.875 166.757812 L -32.929688 44.191406 L 33.972656 -44.128906 Z M 195.777344 78.4375 " clip-rule="nonzero"/></clipPath><clipPath id="3af4e04e5d"><path d="M 0.554688 0.0546875 L 128.875 166.757812 L 195.777344 78.4375 Z M 0.554688 0.0546875 " clip-rule="nonzero"/></clipPath><clipPath id="8f5d3f203c"><rect x="0" width="196" y="0" height="167"/></clipPath><clipPath id="62805f0a75"><path d="M 52 49 L 454 49 L 454 485 L 52 485 Z M 52 49 " clip-rule="nonzero"/></clipPath><clipPath id="428e3508ff"><path d="M 215.621094 49.199219 L 453.570312 359.039062 L 290.484375 484.285156 L 52.535156 174.445312 Z M 215.621094 49.199219 " clip-rule="nonzero"/></clipPath><clipPath id="4d418eb4f0"><path d="M 0.480469 0.0390625 L 401.761719 0.0390625 L 401.761719 435.398438 L 0.480469 435.398438 Z M 0.480469 0.0390625 " clip-rule="nonzero"/></clipPath><clipPath id="bcd2125ed2"><path d="M 163.621094 0.199219 L 401.570312 310.039062 L 238.484375 435.285156 L 0.535156 125.445312 Z M 163.621094 0.199219 " clip-rule="nonzero"/></clipPath><clipPath id="72bb82148b"><rect x="0" width="402" y="0" height="436"/></clipPath><clipPath id="54d817bd61"><path d="M 52 233 L 454 233 L 454 667 L 52 667 Z M 52 233 " clip-rule="nonzero"/></clipPath><clipPath id="2c5d051aef"><path d="M 453.898438 359.4375 L 210.484375 666.207031 L 52.351562 540.730469 L 295.769531 233.964844 Z M 453.898438 359.4375 " clip-rule="nonzero"/></clipPath><clipPath id="538cbc0985"><path d="M 0.238281 0.839844 L 402 0.839844 L 402 433.320312 L 0.238281 433.320312 Z M 0.238281 0.839844 " clip-rule="nonzero"/></clipPath><clipPath id="c6cec3cfcf"><path d="M 401.898438 126.4375 L 158.484375 433.207031 L 0.351562 307.730469 L 243.769531 0.964844 Z M 401.898438 126.4375 " clip-rule="nonzero"/></clipPath><clipPath id="fbc42c57e5"><rect x="0" width="402" y="0" height="434"/></clipPath><clipPath id="bc2e4fab62"><rect x="0" width="465" y="0" height="716"/></clipPath></defs><g transform="matrix(1, 0, 0, 1, 678, 390)"><g clip-path="url(#431c6d0430)"><g clip-path="url(#fd282402b0)"><g clip-path="url(#c7864228a1)"><g clip-path="url(#6606af389c)"><g transform="matrix(1, 0, 0, 1, 52, 5)"><g clip-path="url(#57d0b1e43f)"><g clip-path="url(#9f0745d77e)"><g clip-path="url(#52af816150)"><g clip-path="url(#d3f5457eb0)"><path fill="#ff6044" d="M 130.253906 0.652344 L 197.738281 88.527344 L 34.6875 213.746094 L -32.796875 125.871094 Z M 130.253906 0.652344 " fill-opacity="1" fill-rule="nonzero"/></g></g></g></g></g></g></g></g><g clip-path="url(#c2c2550e07)"><g clip-path="url(#c1ba4dec16)"><g clip-path="url(#0ba63a0612)"><g transform="matrix(1, 0, 0, 1, 53, 541)"><g clip-path="url(#e391522027)"><g clip-path="url(#3f7a797189)"><g clip-path="url(#877945cc79)"><g clip-path="url(#3180c9c8d4)"><path fill="#ff6044" d="M 196.117188 78.839844 L 129.214844 167.160156 L -32.589844 44.59375 L 34.3125 -43.726562 Z M 196.117188 78.839844 " fill-opacity="1" fill-rule="nonzero"/></g></g></g></g></g></g></g></g><g clip-path="url(#640b020d8b)"><g clip-path="url(#93782e64b8)"><g transform="matrix(1, 0, 0, 1, 52, 49)"><g clip-path="url(#4d443e545d)"><g clip-path="url(#f822e7adeb)"><g clip-path="url(#e860d3f560)"><path fill="#ff6044" d="M 163.960938 0.601562 L 401.734375 310.210938 L 238.648438 435.457031 L 0.875 125.847656 Z M 163.960938 0.601562 " fill-opacity="1" fill-rule="nonzero"/></g></g></g></g></g></g><g clip-path="url(#633612eb55)"><g clip-path="url(#68f62a7484)"><g transform="matrix(1, 0, 0, 1, 52, 234)"><g clip-path="url(#f39b641256)"><g clip-path="url(#f4477bd6ff)"><g clip-path="url(#8838ce241b)"><path fill="#ff6044" d="M 402.242188 125.839844 L 158.644531 432.835938 L 0.511719 307.363281 L 244.109375 0.363281 Z M 402.242188 125.839844 " fill-opacity="1" fill-rule="nonzero"/></g></g></g></g></g></g></g></g><g transform="matrix(1, 0, 0, 1, 356, 0.000000000000112861)"><g clip-path="url(#6e3c41bb53)"><g clip-path="url(#0937be98f8)"><g clip-path="url(#05145e9ec2)"><g clip-path="url(#81533cb674)"><g transform="matrix(1, 0, 0, 1, 52, 5)"><g clip-path="url(#5a40855235)"><g clip-path="url(#6f212b6066)"><g clip-path="url(#8c0898340b)"><g clip-path="url(#8ea8428a83)"><path fill="#ff6044" d="M 129.914062 0.0546875 L 197.398438 87.929688 L 34.347656 213.148438 L -33.136719 125.269531 Z M 129.914062 0.0546875 " fill-opacity="1" fill-rule="nonzero"/></g></g></g></g></g></g></g></g><g clip-path="url(#151da01b1c)"><g clip-path="url(#5d0f74e8df)"><g clip-path="url(#c57e9d79a0)"><g transform="matrix(1, 0, 0, 1, 53, 540)"><g clip-path="url(#c4fbbfff04)"><g clip-path="url(#23b703a055)"><g clip-path="url(#5169b90d09)"><g clip-path="url(#bd6f714aaa)"><path fill="#ff6044" d="M 195.777344 79.242188 L 128.875 167.5625 L -32.929688 44.996094 L 33.972656 -43.324219 Z M 195.777344 79.242188 " fill-opacity="1" fill-rule="nonzero"/></g></g></g></g></g></g></g></g><g clip-path="url(#d08b25a406)"><g clip-path="url(#706df0e166)"><g transform="matrix(1, 0, 0, 1, 52, 49)"><g clip-path="url(#1cd604893c)"><g clip-path="url(#c696d89201)"><g clip-path="url(#7d7ac2ab31)"><path fill="#ff6044" d="M 163.621094 0.00390625 L 401.394531 309.613281 L 238.308594 434.859375 L 0.535156 125.246094 Z M 163.621094 0.00390625 " fill-opacity="1" fill-rule="nonzero"/></g></g></g></g></g></g><g clip-path="url(#8e300bfa8f)"><g clip-path="url(#6533b5df7d)"><g transform="matrix(1, 0, 0, 1, 52, 233)"><g clip-path="url(#5facc2f9a4)"><g clip-path="url(#e6adaaf15b)"><g clip-path="url(#27692db876)"><path fill="#ff6044" d="M 401.898438 126.242188 L 158.304688 433.238281 L 0.171875 307.761719 L 243.769531 0.765625 Z M 401.898438 126.242188 " fill-opacity="1" fill-rule="nonzero"/></g></g></g></g></g></g></g></g><g transform="matrix(1, 0, 0, 1, 356, 784)"><g clip-path="url(#bc2e4fab62)"><g clip-path="url(#29014133c7)"><g clip-path="url(#7b08d22a2b)"><g clip-path="url(#c981ec6003)"><g transform="matrix(1, 0, 0, 1, 52, 5)"><g clip-path="url(#8cfac4e02c)"><g clip-path="url(#9465b361f7)"><g clip-path="url(#b50e277d14)"><g clip-path="url(#1d19fe4da5)"><path fill="#ff6044" d="M 129.914062 0.25 L 197.398438 88.125 L 34.347656 213.34375 L -33.136719 125.46875 Z M 129.914062 0.25 " fill-opacity="1" fill-rule="nonzero"/></g></g></g></g></g></g></g></g><g clip-path="url(#a520e309d4)"><g clip-path="url(#9726dcb7a8)"><g clip-path="url(#1fcaf3aed3)"><g transform="matrix(1, 0, 0, 1, 53, 541)"><g clip-path="url(#8f5d3f203c)"><g clip-path="url(#4b7ebc019f)"><g clip-path="url(#b257c5d911)"><g clip-path="url(#3af4e04e5d)"><path fill="#ff6044" d="M 195.777344 78.4375 L 128.875 166.757812 L -32.929688 44.191406 L 33.972656 -44.128906 Z M 195.777344 78.4375 " fill-opacity="1" fill-rule="nonzero"/></g></g></g></g></g></g></g></g><g clip-path="url(#62805f0a75)"><g clip-path="url(#428e3508ff)"><g transform="matrix(1, 0, 0, 1, 52, 49)"><g clip-path="url(#72bb82148b)"><g clip-path="url(#4d418eb4f0)"><g clip-path="url(#bcd2125ed2)"><path fill="#ff6044" d="M 163.621094 0.199219 L 401.394531 309.808594 L 238.308594 435.054688 L 0.535156 125.445312 Z M 163.621094 0.199219 " fill-opacity="1" fill-rule="nonzero"/></g></g></g></g></g></g><g clip-path="url(#54d817bd61)"><g clip-path="url(#2c5d051aef)"><g transform="matrix(1, 0, 0, 1, 52, 233)"><g clip-path="url(#fbc42c57e5)"><g clip-path="url(#538cbc0985)"><g clip-path="url(#c6cec3cfcf)"><path fill="#ff6044" d="M 401.898438 126.4375 L 158.304688 433.433594 L 0.171875 307.960938 L 243.769531 0.964844 Z M 401.898438 126.4375 " fill-opacity="1" fill-rule="nonzero"/></g></g></g></g></g></g></g></g></svg>