<svg xmlns="http://www.w3.org/2000/svg" xmlns:xlink="http://www.w3.org/1999/xlink" width="2000" zoomAndPan="magnify" viewBox="0 0 1500 1499.999933" height="2000" preserveAspectRatio="xMidYMid meet" version="1.0"><defs><clipPath id="89eb673bf9"><path d="M 52 5 L 250 5 L 250 175 L 52 175 Z M 52 5 " clip-rule="nonzero"/></clipPath><clipPath id="feb1c88304"><path d="M 182.253906 5.652344 L 249.738281 93.527344 L 86.347656 219.007812 L 18.859375 131.132812 Z M 182.253906 5.652344 " clip-rule="nonzero"/></clipPath><clipPath id="151ce5fda4"><path d="M 52.878906 174.859375 L 249.738281 93.527344 L 182.253906 5.652344 Z M 52.878906 174.859375 " clip-rule="nonzero"/></clipPath><clipPath id="99b818c5cd"><path d="M 0.800781 0.519531 L 197.839844 0.519531 L 197.839844 169.960938 L 0.800781 169.960938 Z M 0.800781 0.519531 " clip-rule="nonzero"/></clipPath><clipPath id="30015c4b14"><path d="M 130.253906 0.652344 L 197.738281 88.527344 L 34.347656 214.007812 L -33.140625 126.132812 Z M 130.253906 0.652344 " clip-rule="nonzero"/></clipPath><clipPath id="62985f3c30"><path d="M 0.878906 169.859375 L 197.738281 88.527344 L 130.253906 0.652344 Z M 0.878906 169.859375 " clip-rule="nonzero"/></clipPath><clipPath id="fc99113487"><rect x="0" width="198" y="0" height="170"/></clipPath><clipPath id="5f4d893790"><path d="M 53 541 L 250 541 L 250 709 L 53 709 Z M 53 541 " clip-rule="nonzero"/></clipPath><clipPath id="8e74e2cb42"><path d="M 249.117188 619.839844 L 182.214844 708.160156 L 20.410156 585.59375 L 87.3125 497.273438 Z M 249.117188 619.839844 " clip-rule="nonzero"/></clipPath><clipPath id="81f095e11d"><path d="M 53.894531 541.457031 L 182.214844 708.160156 L 249.117188 619.839844 Z M 53.894531 541.457031 " clip-rule="nonzero"/></clipPath><clipPath id="ca7551bb80"><path d="M 0.761719 0.441406 L 196.121094 0.441406 L 196.121094 167.238281 L 0.761719 167.238281 Z M 0.761719 0.441406 " clip-rule="nonzero"/></clipPath><clipPath id="6ba14e26cb"><path d="M 196.117188 78.839844 L 129.214844 167.160156 L -32.589844 44.59375 L 34.3125 -43.726562 Z M 196.117188 78.839844 " clip-rule="nonzero"/></clipPath><clipPath id="bd48c83ee6"><path d="M 0.894531 0.457031 L 129.214844 167.160156 L 196.117188 78.839844 Z M 0.894531 0.457031 " clip-rule="nonzero"/></clipPath><clipPath id="1cd833c3f5"><rect x="0" width="197" y="0" height="168"/></clipPath><clipPath id="df6335f68f"><path d="M 52 49 L 454 49 L 454 485 L 52 485 Z M 52 49 " clip-rule="nonzero"/></clipPath><clipPath id="813087b5a4"><path d="M 215.960938 49.601562 L 453.914062 359.441406 L 290.824219 484.6875 L 52.875 174.847656 Z M 215.960938 49.601562 " clip-rule="nonzero"/></clipPath><clipPath id="ae1153d697"><path d="M 0.800781 0.441406 L 402 0.441406 L 402 435.800781 L 0.800781 435.800781 Z M 0.800781 0.441406 " clip-rule="nonzero"/></clipPath><clipPath id="85c2e2f6c1"><path d="M 163.960938 0.601562 L 401.914062 310.441406 L 238.824219 435.6875 L 0.875 125.847656 Z M 163.960938 0.601562 " clip-rule="nonzero"/></clipPath><clipPath id="257cf634e3"><rect x="0" width="402" y="0" height="436"/></clipPath><clipPath id="99af9debd1"><path d="M 52 234 L 455 234 L 455 667 L 52 667 Z M 52 234 " clip-rule="nonzero"/></clipPath><clipPath id="7e41f0032c"><path d="M 454.242188 359.839844 L 210.824219 666.609375 L 52.691406 541.132812 L 296.109375 234.363281 Z M 454.242188 359.839844 " clip-rule="nonzero"/></clipPath><clipPath id="dc9d07aefd"><path d="M 0.558594 0.238281 L 402.320312 0.238281 L 402.320312 432.71875 L 0.558594 432.71875 Z M 0.558594 0.238281 " clip-rule="nonzero"/></clipPath><clipPath id="0c3ee48933"><path d="M 402.242188 125.839844 L 158.824219 432.609375 L 0.691406 307.132812 L 244.109375 0.363281 Z M 402.242188 125.839844 " clip-rule="nonzero"/></clipPath><clipPath id="27cf69fa4a"><rect x="0" width="403" y="0" height="433"/></clipPath><clipPath id="1f5b089f9c"><rect x="0" width="466" y="0" height="717"/></clipPath><clipPath id="9b51d56478"><path d="M 52 5 L 250 5 L 250 175 L 52 175 Z M 52 5 " clip-rule="nonzero"/></clipPath><clipPath id="b68b2b30ef"><path d="M 181.914062 5.054688 L 249.398438 92.929688 L 86.003906 218.410156 L 18.519531 130.535156 Z M 181.914062 5.054688 " clip-rule="nonzero"/></clipPath><clipPath id="ce4543efbf"><path d="M 52.539062 174.261719 L 249.398438 92.929688 L 181.914062 5.054688 Z M 52.539062 174.261719 " clip-rule="nonzero"/></clipPath><clipPath id="85bf600b37"><path d="M 0.480469 0.0390625 L 197.519531 0.0390625 L 197.519531 169.480469 L 0.480469 169.480469 Z M 0.480469 0.0390625 " clip-rule="nonzero"/></clipPath><clipPath id="ff184cce17"><path d="M 129.914062 0.0546875 L 197.398438 87.929688 L 34.003906 213.410156 L -33.480469 125.535156 Z M 129.914062 0.0546875 " clip-rule="nonzero"/></clipPath><clipPath id="3998192f22"><path d="M 0.539062 169.261719 L 197.398438 87.929688 L 129.914062 0.0546875 Z M 0.539062 169.261719 " clip-rule="nonzero"/></clipPath><clipPath id="89467e5a0a"><rect x="0" width="198" y="0" height="170"/></clipPath><clipPath id="ae68ee5195"><path d="M 53 540 L 249 540 L 249 708 L 53 708 Z M 53 540 " clip-rule="nonzero"/></clipPath><clipPath id="59247a5bb4"><path d="M 248.777344 619.242188 L 181.875 707.5625 L 20.070312 584.996094 L 86.972656 496.675781 Z M 248.777344 619.242188 " clip-rule="nonzero"/></clipPath><clipPath id="814ecc19aa"><path d="M 53.554688 540.859375 L 181.875 707.5625 L 248.777344 619.242188 Z M 53.554688 540.859375 " clip-rule="nonzero"/></clipPath><clipPath id="fc7ef644f7"><path d="M 0.441406 0.71875 L 195.800781 0.71875 L 195.800781 167.761719 L 0.441406 167.761719 Z M 0.441406 0.71875 " clip-rule="nonzero"/></clipPath><clipPath id="f8d28b5f07"><path d="M 195.777344 79.242188 L 128.875 167.5625 L -32.929688 44.996094 L 33.972656 -43.324219 Z M 195.777344 79.242188 " clip-rule="nonzero"/></clipPath><clipPath id="1c1cc97db2"><path d="M 0.554688 0.859375 L 128.875 167.5625 L 195.777344 79.242188 Z M 0.554688 0.859375 " clip-rule="nonzero"/></clipPath><clipPath id="0addd31112"><rect x="0" width="196" y="0" height="168"/></clipPath><clipPath id="5501aeb154"><path d="M 52 49 L 454 49 L 454 485 L 52 485 Z M 52 49 " clip-rule="nonzero"/></clipPath><clipPath id="68fe5af1e2"><path d="M 215.621094 49.003906 L 453.570312 358.84375 L 290.484375 484.089844 L 52.535156 174.246094 Z M 215.621094 49.003906 " clip-rule="nonzero"/></clipPath><clipPath id="80416efb61"><path d="M 0.480469 0 L 401.761719 0 L 401.761719 435 L 0.480469 435 Z M 0.480469 0 " clip-rule="nonzero"/></clipPath><clipPath id="43853e5cba"><path d="M 163.621094 0.00390625 L 401.570312 309.84375 L 238.484375 435.089844 L 0.535156 125.246094 Z M 163.621094 0.00390625 " clip-rule="nonzero"/></clipPath><clipPath id="520639c67b"><rect x="0" width="402" y="0" height="436"/></clipPath><clipPath id="a970f6bd31"><path d="M 52 233 L 454 233 L 454 667 L 52 667 Z M 52 233 " clip-rule="nonzero"/></clipPath><clipPath id="02e7f50a2f"><path d="M 453.898438 359.242188 L 210.484375 666.011719 L 52.351562 540.535156 L 295.769531 233.765625 Z M 453.898438 359.242188 " clip-rule="nonzero"/></clipPath><clipPath id="9ca846a470"><path d="M 0.238281 0.761719 L 402 0.761719 L 402 433.238281 L 0.238281 433.238281 Z M 0.238281 0.761719 " clip-rule="nonzero"/></clipPath><clipPath id="7a52fad4ef"><path d="M 401.898438 126.242188 L 158.484375 433.011719 L 0.351562 307.535156 L 243.769531 0.765625 Z M 401.898438 126.242188 " clip-rule="nonzero"/></clipPath><clipPath id="4b753000de"><rect x="0" width="402" y="0" height="434"/></clipPath><clipPath id="7700d52e06"><rect x="0" width="465" y="0" height="716"/></clipPath><clipPath id="10bd613aa8"><path d="M 52 5 L 250 5 L 250 175 L 52 175 Z M 52 5 " clip-rule="nonzero"/></clipPath><clipPath id="339c125a7b"><path d="M 181.914062 5.25 L 249.398438 93.125 L 86.003906 218.605469 L 18.519531 130.730469 Z M 181.914062 5.25 " clip-rule="nonzero"/></clipPath><clipPath id="2c4fb5f21c"><path d="M 52.539062 174.457031 L 249.398438 93.125 L 181.914062 5.25 Z M 52.539062 174.457031 " clip-rule="nonzero"/></clipPath><clipPath id="d3e4d1c067"><path d="M 0.480469 0.121094 L 197.519531 0.121094 L 197.519531 169.558594 L 0.480469 169.558594 Z M 0.480469 0.121094 " clip-rule="nonzero"/></clipPath><clipPath id="cfca052b3d"><path d="M 129.914062 0.25 L 197.398438 88.125 L 34.003906 213.605469 L -33.480469 125.730469 Z M 129.914062 0.25 " clip-rule="nonzero"/></clipPath><clipPath id="7546b338b5"><path d="M 0.539062 169.457031 L 197.398438 88.125 L 129.914062 0.25 Z M 0.539062 169.457031 " clip-rule="nonzero"/></clipPath><clipPath id="2432c7c0a6"><rect x="0" width="198" y="0" height="170"/></clipPath><clipPath id="dc1c99ca62"><path d="M 53 541 L 249 541 L 249 708 L 53 708 Z M 53 541 " clip-rule="nonzero"/></clipPath><clipPath id="cd825ab0af"><path d="M 248.777344 619.4375 L 181.875 707.757812 L 20.070312 585.191406 L 86.972656 496.871094 Z M 248.777344 619.4375 " clip-rule="nonzero"/></clipPath><clipPath id="be7841cc0e"><path d="M 53.554688 541.054688 L 181.875 707.757812 L 248.777344 619.4375 Z M 53.554688 541.054688 " clip-rule="nonzero"/></clipPath><clipPath id="0bcd8d4d86"><path d="M 0.441406 0.0390625 L 195.800781 0.0390625 L 195.800781 166.839844 L 0.441406 166.839844 Z M 0.441406 0.0390625 " clip-rule="nonzero"/></clipPath><clipPath id="11b2992946"><path d="M 195.777344 78.4375 L 128.875 166.757812 L -32.929688 44.191406 L 33.972656 -44.128906 Z M 195.777344 78.4375 " clip-rule="nonzero"/></clipPath><clipPath id="d77c76948b"><path d="M 0.554688 0.0546875 L 128.875 166.757812 L 195.777344 78.4375 Z M 0.554688 0.0546875 " clip-rule="nonzero"/></clipPath><clipPath id="cfc41d46ce"><rect x="0" width="196" y="0" height="167"/></clipPath><clipPath id="f4fafd5fba"><path d="M 52 49 L 454 49 L 454 485 L 52 485 Z M 52 49 " clip-rule="nonzero"/></clipPath><clipPath id="20820c5228"><path d="M 215.621094 49.199219 L 453.570312 359.039062 L 290.484375 484.285156 L 52.535156 174.445312 Z M 215.621094 49.199219 " clip-rule="nonzero"/></clipPath><clipPath id="83ea070b82"><path d="M 0.480469 0.0390625 L 401.761719 0.0390625 L 401.761719 435.398438 L 0.480469 435.398438 Z M 0.480469 0.0390625 " clip-rule="nonzero"/></clipPath><clipPath id="00256f7956"><path d="M 163.621094 0.199219 L 401.570312 310.039062 L 238.484375 435.285156 L 0.535156 125.445312 Z M 163.621094 0.199219 " clip-rule="nonzero"/></clipPath><clipPath id="c93385a3fe"><rect x="0" width="402" y="0" height="436"/></clipPath><clipPath id="34f54a456e"><path d="M 52 233 L 454 233 L 454 667 L 52 667 Z M 52 233 " clip-rule="nonzero"/></clipPath><clipPath id="3eda2d6891"><path d="M 453.898438 359.4375 L 210.484375 666.207031 L 52.351562 540.730469 L 295.769531 233.964844 Z M 453.898438 359.4375 " clip-rule="nonzero"/></clipPath><clipPath id="37394834c8"><path d="M 0.238281 0.839844 L 402 0.839844 L 402 433.320312 L 0.238281 433.320312 Z M 0.238281 0.839844 " clip-rule="nonzero"/></clipPath><clipPath id="f0173efd5d"><path d="M 401.898438 126.4375 L 158.484375 433.207031 L 0.351562 307.730469 L 243.769531 0.964844 Z M 401.898438 126.4375 " clip-rule="nonzero"/></clipPath><clipPath id="c04503b2e3"><rect x="0" width="402" y="0" height="434"/></clipPath><clipPath id="453afd0b03"><rect x="0" width="465" y="0" height="716"/></clipPath></defs><g transform="matrix(1, 0, 0, 1, 678, 390)"><g clip-path="url(#1f5b089f9c)"><g clip-path="url(#89eb673bf9)"><g clip-path="url(#feb1c88304)"><g clip-path="url(#151ce5fda4)"><g transform="matrix(1, 0, 0, 1, 52, 5)"><g clip-path="url(#fc99113487)"><g clip-path="url(#99b818c5cd)"><g clip-path="url(#30015c4b14)"><g clip-path="url(#62985f3c30)"><path fill="#000000" d="M 130.253906 0.652344 L 197.738281 88.527344 L 34.6875 213.746094 L -32.796875 125.871094 Z M 130.253906 0.652344 " fill-opacity="1" fill-rule="nonzero"/></g></g></g></g></g></g></g></g><g clip-path="url(#5f4d893790)"><g clip-path="url(#8e74e2cb42)"><g clip-path="url(#81f095e11d)"><g transform="matrix(1, 0, 0, 1, 53, 541)"><g clip-path="url(#1cd833c3f5)"><g clip-path="url(#ca7551bb80)"><g clip-path="url(#6ba14e26cb)"><g clip-path="url(#bd48c83ee6)"><path fill="#000000" d="M 196.117188 78.839844 L 129.214844 167.160156 L -32.589844 44.59375 L 34.3125 -43.726562 Z M 196.117188 78.839844 " fill-opacity="1" fill-rule="nonzero"/></g></g></g></g></g></g></g></g><g clip-path="url(#df6335f68f)"><g clip-path="url(#813087b5a4)"><g transform="matrix(1, 0, 0, 1, 52, 49)"><g clip-path="url(#257cf634e3)"><g clip-path="url(#ae1153d697)"><g clip-path="url(#85c2e2f6c1)"><path fill="#000000" d="M 163.960938 0.601562 L 401.734375 310.210938 L 238.648438 435.457031 L 0.875 125.847656 Z M 163.960938 0.601562 " fill-opacity="1" fill-rule="nonzero"/></g></g></g></g></g></g><g clip-path="url(#99af9debd1)"><g clip-path="url(#7e41f0032c)"><g transform="matrix(1, 0, 0, 1, 52, 234)"><g clip-path="url(#27cf69fa4a)"><g clip-path="url(#dc9d07aefd)"><g clip-path="url(#0c3ee48933)"><path fill="#000000" d="M 402.242188 125.839844 L 158.644531 432.835938 L 0.511719 307.363281 L 244.109375 0.363281 Z M 402.242188 125.839844 " fill-opacity="1" fill-rule="nonzero"/></g></g></g></g></g></g></g></g><g transform="matrix(1, 0, 0, 1, 356, 0.000000000000112861)"><g clip-path="url(#7700d52e06)"><g clip-path="url(#9b51d56478)"><g clip-path="url(#b68b2b30ef)"><g clip-path="url(#ce4543efbf)"><g transform="matrix(1, 0, 0, 1, 52, 5)"><g clip-path="url(#89467e5a0a)"><g clip-path="url(#85bf600b37)"><g clip-path="url(#ff184cce17)"><g clip-path="url(#3998192f22)"><path fill="#000000" d="M 129.914062 0.0546875 L 197.398438 87.929688 L 34.347656 213.148438 L -33.136719 125.269531 Z M 129.914062 0.0546875 " fill-opacity="1" fill-rule="nonzero"/></g></g></g></g></g></g></g></g><g clip-path="url(#ae68ee5195)"><g clip-path="url(#59247a5bb4)"><g clip-path="url(#814ecc19aa)"><g transform="matrix(1, 0, 0, 1, 53, 540)"><g clip-path="url(#0addd31112)"><g clip-path="url(#fc7ef644f7)"><g clip-path="url(#f8d28b5f07)"><g clip-path="url(#1c1cc97db2)"><path fill="#000000" d="M 195.777344 79.242188 L 128.875 167.5625 L -32.929688 44.996094 L 33.972656 -43.324219 Z M 195.777344 79.242188 " fill-opacity="1" fill-rule="nonzero"/></g></g></g></g></g></g></g></g><g clip-path="url(#5501aeb154)"><g clip-path="url(#68fe5af1e2)"><g transform="matrix(1, 0, 0, 1, 52, 49)"><g clip-path="url(#520639c67b)"><g clip-path="url(#80416efb61)"><g clip-path="url(#43853e5cba)"><path fill="#000000" d="M 163.621094 0.00390625 L 401.394531 309.613281 L 238.308594 434.859375 L 0.535156 125.246094 Z M 163.621094 0.00390625 " fill-opacity="1" fill-rule="nonzero"/></g></g></g></g></g></g><g clip-path="url(#a970f6bd31)"><g clip-path="url(#02e7f50a2f)"><g transform="matrix(1, 0, 0, 1, 52, 233)"><g clip-path="url(#4b753000de)"><g clip-path="url(#9ca846a470)"><g clip-path="url(#7a52fad4ef)"><path fill="#000000" d="M 401.898438 126.242188 L 158.304688 433.238281 L 0.171875 307.761719 L 243.769531 0.765625 Z M 401.898438 126.242188 " fill-opacity="1" fill-rule="nonzero"/></g></g></g></g></g></g></g></g><g transform="matrix(1, 0, 0, 1, 356, 784)"><g clip-path="url(#453afd0b03)"><g clip-path="url(#10bd613aa8)"><g clip-path="url(#339c125a7b)"><g clip-path="url(#2c4fb5f21c)"><g transform="matrix(1, 0, 0, 1, 52, 5)"><g clip-path="url(#2432c7c0a6)"><g clip-path="url(#d3e4d1c067)"><g clip-path="url(#cfca052b3d)"><g clip-path="url(#7546b338b5)"><path fill="#000000" d="M 129.914062 0.25 L 197.398438 88.125 L 34.347656 213.34375 L -33.136719 125.46875 Z M 129.914062 0.25 " fill-opacity="1" fill-rule="nonzero"/></g></g></g></g></g></g></g></g><g clip-path="url(#dc1c99ca62)"><g clip-path="url(#cd825ab0af)"><g clip-path="url(#be7841cc0e)"><g transform="matrix(1, 0, 0, 1, 53, 541)"><g clip-path="url(#cfc41d46ce)"><g clip-path="url(#0bcd8d4d86)"><g clip-path="url(#11b2992946)"><g clip-path="url(#d77c76948b)"><path fill="#000000" d="M 195.777344 78.4375 L 128.875 166.757812 L -32.929688 44.191406 L 33.972656 -44.128906 Z M 195.777344 78.4375 " fill-opacity="1" fill-rule="nonzero"/></g></g></g></g></g></g></g></g><g clip-path="url(#f4fafd5fba)"><g clip-path="url(#20820c5228)"><g transform="matrix(1, 0, 0, 1, 52, 49)"><g clip-path="url(#c93385a3fe)"><g clip-path="url(#83ea070b82)"><g clip-path="url(#00256f7956)"><path fill="#000000" d="M 163.621094 0.199219 L 401.394531 309.808594 L 238.308594 435.054688 L 0.535156 125.445312 Z M 163.621094 0.199219 " fill-opacity="1" fill-rule="nonzero"/></g></g></g></g></g></g><g clip-path="url(#34f54a456e)"><g clip-path="url(#3eda2d6891)"><g transform="matrix(1, 0, 0, 1, 52, 233)"><g clip-path="url(#c04503b2e3)"><g clip-path="url(#37394834c8)"><g clip-path="url(#f0173efd5d)"><path fill="#000000" d="M 401.898438 126.4375 L 158.304688 433.433594 L 0.171875 307.960938 L 243.769531 0.964844 Z M 401.898438 126.4375 " fill-opacity="1" fill-rule="nonzero"/></g></g></g></g></g></g></g></g></svg>