<svg xmlns="http://www.w3.org/2000/svg" xmlns:xlink="http://www.w3.org/1999/xlink" width="1366" zoomAndPan="magnify" viewBox="0 0 1024.5 576" height="768" preserveAspectRatio="xMidYMid meet" version="1.0"><defs><clipPath id="8b4f4f2356"><path d="M 19 0.140625 L 1004 0.140625 L 1004 575.859375 L 19 575.859375 Z M 19 0.140625 " clip-rule="nonzero"/></clipPath><clipPath id="d73049f0b5"><path d="M 6 296 L 241 296 L 241 568 L 6 568 Z M 6 296 " clip-rule="nonzero"/></clipPath><clipPath id="d6f9fcac51"><path d="M 6.644531 390.238281 L 127.539062 296.808594 L 301.253906 521.601562 L 180.355469 615.027344 Z M 6.644531 390.238281 " clip-rule="nonzero"/></clipPath><clipPath id="1277906989"><path d="M 240.511719 567.9375 L 127.539062 296.808594 L 6.644531 390.238281 Z M 240.511719 567.9375 " clip-rule="nonzero"/></clipPath><clipPath id="684ccda052"><path d="M 0.425781 0.636719 L 234.554688 0.636719 L 234.554688 271.945312 L 0.425781 271.945312 Z M 0.425781 0.636719 " clip-rule="nonzero"/></clipPath><clipPath id="d0153f9937"><path d="M 0.644531 94.238281 L 121.539062 0.808594 L 295.253906 225.601562 L 174.355469 319.027344 Z M 0.644531 94.238281 " clip-rule="nonzero"/></clipPath><clipPath id="7452f5abcb"><path d="M 234.511719 271.9375 L 121.539062 0.808594 L 0.644531 94.238281 Z M 234.511719 271.9375 " clip-rule="nonzero"/></clipPath><clipPath id="9d19f2a424"><rect x="0" width="235" y="0" height="272"/></clipPath><clipPath id="c36352f396"><path d="M 746 296 L 975 296 L 975 566 L 746 566 Z M 746 296 " clip-rule="nonzero"/></clipPath><clipPath id="ca74b5cb54"><path d="M 852.441406 296.660156 L 974.507812 388.550781 L 806.882812 611.230469 L 684.8125 519.339844 Z M 852.441406 296.660156 " clip-rule="nonzero"/></clipPath><clipPath id="4adad9ae30"><path d="M 746.046875 565.015625 L 974.507812 388.550781 L 852.441406 296.660156 Z M 746.046875 565.015625 " clip-rule="nonzero"/></clipPath><clipPath id="3da22a7649"><path d="M 0 0.636719 L 228.59375 0.636719 L 228.59375 269.066406 L 0 269.066406 Z M 0 0.636719 " clip-rule="nonzero"/></clipPath><clipPath id="7d99e22745"><path d="M 106.441406 0.660156 L 228.507812 92.550781 L 60.882812 315.230469 L -61.1875 223.339844 Z M 106.441406 0.660156 " clip-rule="nonzero"/></clipPath><clipPath id="a369f6f319"><path d="M 0.046875 269.015625 L 228.507812 92.550781 L 106.441406 0.660156 Z M 0.046875 269.015625 " clip-rule="nonzero"/></clipPath><clipPath id="a71e5f510f"><rect x="0" width="229" y="0" height="270"/></clipPath><clipPath id="44120f2ea0"><path d="M 67 14 L 667 14 L 667 568 L 67 568 Z M 67 14 " clip-rule="nonzero"/></clipPath><clipPath id="47fecb8f62"><path d="M 67.105469 343.570312 L 493.378906 14.15625 L 666.765625 238.527344 L 240.492188 567.941406 Z M 67.105469 343.570312 " clip-rule="nonzero"/></clipPath><clipPath id="a43c6819b2"><path d="M 0 0.0546875 L 599.824219 0.0546875 L 599.824219 553.945312 L 0 553.945312 Z M 0 0.0546875 " clip-rule="nonzero"/></clipPath><clipPath id="6e12df97ad"><path d="M 0.105469 329.570312 L 426.378906 0.15625 L 599.765625 224.527344 L 173.492188 553.941406 Z M 0.105469 329.570312 " clip-rule="nonzero"/></clipPath><clipPath id="b42b580772"><rect x="0" width="600" y="0" height="554"/></clipPath><clipPath id="d9118761a3"><path d="M 321 13 L 918 13 L 918 567 L 321 567 Z M 321 13 " clip-rule="nonzero"/></clipPath><clipPath id="930e2d9154"><path d="M 493.925781 13.703125 L 917.960938 348.09375 L 745.59375 566.671875 L 321.558594 232.28125 Z M 493.925781 13.703125 " clip-rule="nonzero"/></clipPath><clipPath id="4b387fd5be"><path d="M 0.394531 0.574219 L 596.984375 0.574219 L 596.984375 553.742188 L 0.394531 553.742188 Z M 0.394531 0.574219 " clip-rule="nonzero"/></clipPath><clipPath id="c9175fa07d"><path d="M 172.925781 0.703125 L 596.960938 335.09375 L 424.59375 553.671875 L 0.558594 219.28125 Z M 172.925781 0.703125 " clip-rule="nonzero"/></clipPath><clipPath id="f46fe57a8b"><rect x="0" width="597" y="0" height="554"/></clipPath><clipPath id="80fbcd7b3c"><rect x="0" width="985" y="0" height="576"/></clipPath></defs><g clip-path="url(#8b4f4f2356)"><g transform="matrix(1, 0, 0, 1, 19, -0.000000000000058398)"><g clip-path="url(#80fbcd7b3c)"><g clip-path="url(#d73049f0b5)"><g clip-path="url(#d6f9fcac51)"><g clip-path="url(#1277906989)"><g transform="matrix(1, 0, 0, 1, 6, 296)"><g clip-path="url(#9d19f2a424)"><g clip-path="url(#684ccda052)"><g clip-path="url(#d0153f9937)"><g clip-path="url(#7452f5abcb)"><path fill="#ffffff" d="M 0.644531 94.238281 L 121.539062 0.808594 L 294.890625 225.128906 L 173.992188 318.554688 Z M 0.644531 94.238281 " fill-opacity="1" fill-rule="nonzero"/></g></g></g></g></g></g></g></g><g clip-path="url(#c36352f396)"><g clip-path="url(#ca74b5cb54)"><g clip-path="url(#4adad9ae30)"><g transform="matrix(1, 0, 0, 1, 746, 296)"><g clip-path="url(#a71e5f510f)"><g clip-path="url(#3da22a7649)"><g clip-path="url(#7d99e22745)"><g clip-path="url(#a369f6f319)"><path fill="#ffffff" d="M 106.441406 0.660156 L 228.507812 92.550781 L 61.242188 314.753906 L -60.828125 222.863281 Z M 106.441406 0.660156 " fill-opacity="1" fill-rule="nonzero"/></g></g></g></g></g></g></g></g><g clip-path="url(#44120f2ea0)"><g clip-path="url(#47fecb8f62)"><g transform="matrix(1, 0, 0, 1, 67, 14)"><g clip-path="url(#b42b580772)"><g clip-path="url(#a43c6819b2)"><g clip-path="url(#6e12df97ad)"><path fill="#ffffff" d="M 0.105469 329.570312 L 426.058594 0.40625 L 599.445312 224.773438 L 173.492188 553.941406 Z M 0.105469 329.570312 " fill-opacity="1" fill-rule="nonzero"/></g></g></g></g></g></g><g clip-path="url(#d9118761a3)"><g clip-path="url(#930e2d9154)"><g transform="matrix(1, 0, 0, 1, 321, 13)"><g clip-path="url(#f46fe57a8b)"><g clip-path="url(#4b387fd5be)"><g clip-path="url(#c9175fa07d)"><path fill="#ffffff" d="M 172.925781 0.703125 L 597.273438 335.339844 L 424.90625 553.917969 L 0.558594 219.28125 Z M 172.925781 0.703125 " fill-opacity="1" fill-rule="nonzero"/></g></g></g></g></g></g></g></g></g></svg>