<svg xmlns="http://www.w3.org/2000/svg" xmlns:xlink="http://www.w3.org/1999/xlink" width="1366" zoomAndPan="magnify" viewBox="0 0 1024.5 576" height="768" preserveAspectRatio="xMidYMid meet" version="1.0"><defs><clipPath id="4590287218"><path d="M 19 0.140625 L 1004 0.140625 L 1004 575.859375 L 19 575.859375 Z M 19 0.140625 " clip-rule="nonzero"/></clipPath><clipPath id="f1a16c75de"><path d="M 6 296 L 241 296 L 241 568 L 6 568 Z M 6 296 " clip-rule="nonzero"/></clipPath><clipPath id="3f9565a135"><path d="M 6.644531 390.238281 L 127.539062 296.808594 L 301.253906 521.601562 L 180.355469 615.027344 Z M 6.644531 390.238281 " clip-rule="nonzero"/></clipPath><clipPath id="440b2d4611"><path d="M 240.511719 567.9375 L 127.539062 296.808594 L 6.644531 390.238281 Z M 240.511719 567.9375 " clip-rule="nonzero"/></clipPath><clipPath id="38d47e6b3b"><path d="M 0.425781 0.636719 L 234.554688 0.636719 L 234.554688 271.945312 L 0.425781 271.945312 Z M 0.425781 0.636719 " clip-rule="nonzero"/></clipPath><clipPath id="c1e40b67dd"><path d="M 0.644531 94.238281 L 121.539062 0.808594 L 295.253906 225.601562 L 174.355469 319.027344 Z M 0.644531 94.238281 " clip-rule="nonzero"/></clipPath><clipPath id="bdd7b145a8"><path d="M 234.511719 271.9375 L 121.539062 0.808594 L 0.644531 94.238281 Z M 234.511719 271.9375 " clip-rule="nonzero"/></clipPath><clipPath id="8eea97fe72"><rect x="0" width="235" y="0" height="272"/></clipPath><clipPath id="ec917d5c8a"><path d="M 746 296 L 975 296 L 975 566 L 746 566 Z M 746 296 " clip-rule="nonzero"/></clipPath><clipPath id="188cc175b6"><path d="M 852.441406 296.660156 L 974.507812 388.550781 L 806.882812 611.230469 L 684.8125 519.339844 Z M 852.441406 296.660156 " clip-rule="nonzero"/></clipPath><clipPath id="f80e2088d8"><path d="M 746.046875 565.015625 L 974.507812 388.550781 L 852.441406 296.660156 Z M 746.046875 565.015625 " clip-rule="nonzero"/></clipPath><clipPath id="0853a0f2a2"><path d="M 0 0.636719 L 228.59375 0.636719 L 228.59375 269.066406 L 0 269.066406 Z M 0 0.636719 " clip-rule="nonzero"/></clipPath><clipPath id="8ebe1a8914"><path d="M 106.441406 0.660156 L 228.507812 92.550781 L 60.882812 315.230469 L -61.1875 223.339844 Z M 106.441406 0.660156 " clip-rule="nonzero"/></clipPath><clipPath id="aa28941761"><path d="M 0.046875 269.015625 L 228.507812 92.550781 L 106.441406 0.660156 Z M 0.046875 269.015625 " clip-rule="nonzero"/></clipPath><clipPath id="76229bcaec"><rect x="0" width="229" y="0" height="270"/></clipPath><clipPath id="c9b167c7d4"><path d="M 67 14 L 667 14 L 667 568 L 67 568 Z M 67 14 " clip-rule="nonzero"/></clipPath><clipPath id="83fa62b0ad"><path d="M 67.105469 343.570312 L 493.378906 14.15625 L 666.765625 238.527344 L 240.492188 567.941406 Z M 67.105469 343.570312 " clip-rule="nonzero"/></clipPath><clipPath id="4984589c68"><path d="M 0 0.0546875 L 599.824219 0.0546875 L 599.824219 553.945312 L 0 553.945312 Z M 0 0.0546875 " clip-rule="nonzero"/></clipPath><clipPath id="bbf35a0e60"><path d="M 0.105469 329.570312 L 426.378906 0.15625 L 599.765625 224.527344 L 173.492188 553.941406 Z M 0.105469 329.570312 " clip-rule="nonzero"/></clipPath><clipPath id="5ad897c3ce"><rect x="0" width="600" y="0" height="554"/></clipPath><clipPath id="95235f2e26"><path d="M 321 13 L 918 13 L 918 567 L 321 567 Z M 321 13 " clip-rule="nonzero"/></clipPath><clipPath id="7d934f5ef9"><path d="M 493.925781 13.703125 L 917.960938 348.09375 L 745.59375 566.671875 L 321.558594 232.28125 Z M 493.925781 13.703125 " clip-rule="nonzero"/></clipPath><clipPath id="4a74828768"><path d="M 0.394531 0.574219 L 596.984375 0.574219 L 596.984375 553.742188 L 0.394531 553.742188 Z M 0.394531 0.574219 " clip-rule="nonzero"/></clipPath><clipPath id="ee1a98b53c"><path d="M 172.925781 0.703125 L 596.960938 335.09375 L 424.59375 553.671875 L 0.558594 219.28125 Z M 172.925781 0.703125 " clip-rule="nonzero"/></clipPath><clipPath id="508b3400de"><rect x="0" width="597" y="0" height="554"/></clipPath><clipPath id="4537756299"><rect x="0" width="985" y="0" height="576"/></clipPath></defs><g clip-path="url(#4590287218)"><g transform="matrix(1, 0, 0, 1, 19, -0.000000000000058398)"><g clip-path="url(#4537756299)"><g clip-path="url(#f1a16c75de)"><g clip-path="url(#3f9565a135)"><g clip-path="url(#440b2d4611)"><g transform="matrix(1, 0, 0, 1, 6, 296)"><g clip-path="url(#8eea97fe72)"><g clip-path="url(#38d47e6b3b)"><g clip-path="url(#c1e40b67dd)"><g clip-path="url(#bdd7b145a8)"><path fill="#000000" d="M 0.644531 94.238281 L 121.539062 0.808594 L 294.890625 225.128906 L 173.992188 318.554688 Z M 0.644531 94.238281 " fill-opacity="1" fill-rule="nonzero"/></g></g></g></g></g></g></g></g><g clip-path="url(#ec917d5c8a)"><g clip-path="url(#188cc175b6)"><g clip-path="url(#f80e2088d8)"><g transform="matrix(1, 0, 0, 1, 746, 296)"><g clip-path="url(#76229bcaec)"><g clip-path="url(#0853a0f2a2)"><g clip-path="url(#8ebe1a8914)"><g clip-path="url(#aa28941761)"><path fill="#000000" d="M 106.441406 0.660156 L 228.507812 92.550781 L 61.242188 314.753906 L -60.828125 222.863281 Z M 106.441406 0.660156 " fill-opacity="1" fill-rule="nonzero"/></g></g></g></g></g></g></g></g><g clip-path="url(#c9b167c7d4)"><g clip-path="url(#83fa62b0ad)"><g transform="matrix(1, 0, 0, 1, 67, 14)"><g clip-path="url(#5ad897c3ce)"><g clip-path="url(#4984589c68)"><g clip-path="url(#bbf35a0e60)"><path fill="#000000" d="M 0.105469 329.570312 L 426.058594 0.40625 L 599.445312 224.773438 L 173.492188 553.941406 Z M 0.105469 329.570312 " fill-opacity="1" fill-rule="nonzero"/></g></g></g></g></g></g><g clip-path="url(#95235f2e26)"><g clip-path="url(#7d934f5ef9)"><g transform="matrix(1, 0, 0, 1, 321, 13)"><g clip-path="url(#508b3400de)"><g clip-path="url(#4a74828768)"><g clip-path="url(#ee1a98b53c)"><path fill="#000000" d="M 172.925781 0.703125 L 597.273438 335.339844 L 424.90625 553.917969 L 0.558594 219.28125 Z M 172.925781 0.703125 " fill-opacity="1" fill-rule="nonzero"/></g></g></g></g></g></g></g></g></g></svg>