<svg xmlns="http://www.w3.org/2000/svg" xmlns:xlink="http://www.w3.org/1999/xlink" width="2268" zoomAndPan="magnify" viewBox="0 0 1700.88 510.000002" height="680" preserveAspectRatio="xMidYMid meet" version="1.0"><defs><g/><clipPath id="42bda03b91"><path d="M 1.605469 12 L 1699.15625 12 L 1699.15625 492 L 1.605469 492 Z M 1.605469 12 " clip-rule="nonzero"/></clipPath><clipPath id="8332b7f857"><path d="M 0.605469 0.457031 L 1698.15625 0.457031 L 1698.15625 479.753906 L 0.605469 479.753906 Z M 0.605469 0.457031 " clip-rule="nonzero"/></clipPath><clipPath id="813a95fa79"><rect x="0" width="1699" y="0" height="480"/></clipPath><clipPath id="b5fd9f398b"><rect x="0" width="1699" y="0" height="480"/></clipPath></defs><g clip-path="url(#42bda03b91)"><g transform="matrix(1, 0, 0, 1, 1, 12)"><g clip-path="url(#b5fd9f398b)"><g clip-path="url(#8332b7f857)"><g transform="matrix(1, 0, 0, 1, 0, -0.000000000000026645)"><g clip-path="url(#813a95fa79)"><g fill="#000000" fill-opacity="1"><g transform="translate(-14.996687, 364.682696)"><g><path d="M 22.171875 0 L 22.171875 -45.8125 L 163.703125 -215.0625 L 33.25 -215.0625 L 33.25 -263.828125 L 240.921875 -263.828125 L 240.921875 -218.015625 L 99.40625 -48.78125 L 244.625 -48.78125 L 244.625 0 Z M 22.171875 0 "/></g></g></g><g fill="#000000" fill-opacity="1"><g transform="translate(244.365721, 364.682696)"><g><path d="M 22.171875 0 L 22.171875 -263.828125 L 214.6875 -263.828125 L 214.6875 -212.109375 L 78.34375 -212.109375 L 78.34375 -158.15625 L 198.796875 -158.15625 L 198.796875 -106.421875 L 78.34375 -106.421875 L 78.34375 -51.734375 L 214.6875 -51.734375 L 214.6875 0 Z M 22.171875 0 "/></g></g></g><g fill="#000000" fill-opacity="1"><g transform="translate(444.240189, 364.682696)"><g><path d="M 158.515625 4.4375 C 139.796875 4.4375 122.179688 0.925781 105.671875 -6.09375 C 89.171875 -13.113281 74.640625 -22.90625 62.078125 -35.46875 C 49.515625 -48.03125 39.722656 -62.5625 32.703125 -79.0625 C 25.679688 -95.570312 22.171875 -113.191406 22.171875 -131.921875 C 22.171875 -150.890625 25.679688 -168.625 32.703125 -185.125 C 39.722656 -201.632812 49.515625 -216.171875 62.078125 -228.734375 C 74.640625 -241.296875 89.171875 -251.085938 105.671875 -258.109375 C 122.179688 -265.128906 139.796875 -268.640625 158.515625 -268.640625 C 177.242188 -268.640625 194.859375 -265.128906 211.359375 -258.109375 C 227.867188 -251.085938 242.40625 -241.296875 254.96875 -228.734375 C 267.53125 -216.171875 277.382812 -201.632812 284.53125 -185.125 C 291.675781 -168.625 295.25 -150.890625 295.25 -131.921875 C 295.25 -113.441406 291.796875 -96.070312 284.890625 -79.8125 C 277.992188 -63.550781 268.507812 -49.265625 256.4375 -36.953125 L 288.59375 4.0625 L 216.53125 4.0625 L 209.140625 -5.171875 C 192.890625 1.234375 176.015625 4.4375 158.515625 4.4375 Z M 77.96875 -131.921875 C 77.96875 -117.378906 81.597656 -103.953125 88.859375 -91.640625 C 96.128906 -79.328125 105.921875 -69.535156 118.234375 -62.265625 C 130.554688 -54.992188 143.984375 -51.359375 158.515625 -51.359375 C 162.703125 -51.359375 166.769531 -51.726562 170.71875 -52.46875 L 138.203125 -92.375 L 212.84375 -92.375 L 220.96875 -82.03125 C 226.382812 -88.925781 230.632812 -96.625 233.71875 -105.125 C 236.800781 -113.625 238.34375 -122.554688 238.34375 -131.921875 C 238.34375 -146.703125 234.769531 -160.1875 227.625 -172.375 C 220.476562 -184.570312 210.867188 -194.363281 198.796875 -201.75 C 186.722656 -209.144531 173.296875 -212.84375 158.515625 -212.84375 C 143.984375 -212.84375 130.554688 -209.144531 118.234375 -201.75 C 105.921875 -194.363281 96.128906 -184.570312 88.859375 -172.375 C 81.597656 -160.1875 77.96875 -146.703125 77.96875 -131.921875 Z M 77.96875 -131.921875 "/></g></g></g><g fill="#000000" fill-opacity="1"><g transform="translate(735.74346, 364.682696)"><g><path d="M 132.65625 4.4375 C 97.914062 4.4375 70.816406 -4.242188 51.359375 -21.609375 C 31.898438 -38.984375 22.171875 -65.648438 22.171875 -101.609375 L 22.171875 -263.828125 L 78.34375 -263.828125 L 78.34375 -101.609375 C 78.34375 -92.003906 79.632812 -82.828125 82.21875 -74.078125 C 84.800781 -65.335938 89.972656 -58.195312 97.734375 -52.65625 C 105.492188 -47.113281 117.132812 -44.34375 132.65625 -44.34375 C 153.351562 -44.34375 167.640625 -48.960938 175.515625 -58.203125 C 183.398438 -67.441406 187.34375 -81.910156 187.34375 -101.609375 L 187.34375 -263.828125 L 243.515625 -263.828125 L 243.515625 -101.609375 C 243.515625 -65.890625 233.660156 -39.285156 213.953125 -21.796875 C 194.242188 -4.304688 167.144531 4.4375 132.65625 4.4375 Z M 132.65625 4.4375 "/></g></g></g><g fill="#000000" fill-opacity="1"><g transform="translate(979.216903, 364.682696)"><g><path d="M 22.171875 0 L 22.171875 -263.828125 L 214.6875 -263.828125 L 214.6875 -212.109375 L 78.34375 -212.109375 L 78.34375 -158.15625 L 198.796875 -158.15625 L 198.796875 -106.421875 L 78.34375 -106.421875 L 78.34375 -51.734375 L 214.6875 -51.734375 L 214.6875 0 Z M 22.171875 0 "/></g></g></g><g fill="#000000" fill-opacity="1"><g transform="translate(1193.872038, 364.682696)"><g><path d="M 22.171875 0 L 22.171875 -263.828125 L 94.21875 -263.828125 L 215.796875 -85.359375 L 215.796875 -263.828125 L 268.265625 -263.828125 L 268.265625 0 L 212.109375 0 L 74.640625 -197.328125 L 74.640625 0 Z M 22.171875 0 "/></g></g></g><g fill="#000000" fill-opacity="1"><g transform="translate(1462.099589, 364.682696)"><g><path d="M 97.921875 0 L 97.921875 -212.109375 L 22.171875 -212.109375 L 22.171875 -263.828125 L 229.46875 -263.828125 L 229.46875 -212.109375 L 154.09375 -212.109375 L 154.09375 0 Z M 97.921875 0 "/></g></g></g></g></g></g></g></g></g></svg>